<svg xmlns="http://www.w3.org/2000/svg" xmlns:xlink="http://www.w3.org/1999/xlink" width="1280" zoomAndPan="magnify" viewBox="0 0 960 479.999983" height="640" preserveAspectRatio="xMidYMid meet" version="1.0"><defs><filter x="0%" y="0%" width="100%" height="100%" id="e4aeda1bd7"><feColorMatrix values="0 0 0 0 1 0 0 0 0 1 0 0 0 0 1 0 0 0 1 0" color-interpolation-filters="sRGB"/></filter><g/><linearGradient x1="160" gradientTransform="matrix(0.75, 0, 0, 0.75, 0.000017, 0)" y1="-160" x2="1119.99996" gradientUnits="userSpaceOnUse" y2="799.99996" id="ba5577b5d4"><stop stop-opacity="1" stop-color="rgb(17.248535%, 18.818665%, 94.509888%)" offset="0"/><stop stop-opacity="1" stop-color="rgb(17.533875%, 18.812561%, 94.348145%)" offset="0.00390625"/><stop stop-opacity="1" stop-color="rgb(17.819214%, 18.806458%, 94.187927%)" offset="0.0078125"/><stop stop-opacity="1" stop-color="rgb(18.103027%, 18.800354%, 94.026184%)" offset="0.0117187"/><stop stop-opacity="1" stop-color="rgb(18.388367%, 18.79425%, 93.865967%)" offset="0.015625"/><stop stop-opacity="1" stop-color="rgb(18.673706%, 18.788147%, 93.704224%)" offset="0.0195312"/><stop stop-opacity="1" stop-color="rgb(18.959045%, 18.782043%, 93.544006%)" offset="0.0234375"/><stop stop-opacity="1" stop-color="rgb(19.242859%, 18.77594%, 93.382263%)" offset="0.0273438"/><stop stop-opacity="1" stop-color="rgb(19.528198%, 18.769836%, 93.222046%)" offset="0.03125"/><stop stop-opacity="1" stop-color="rgb(19.813538%, 18.763733%, 93.060303%)" offset="0.0351562"/><stop stop-opacity="1" stop-color="rgb(20.098877%, 18.757629%, 92.900085%)" offset="0.0390625"/><stop stop-opacity="1" stop-color="rgb(20.38269%, 18.751526%, 92.739868%)" offset="0.0429687"/><stop stop-opacity="1" stop-color="rgb(20.66803%, 18.745422%, 92.579651%)" offset="0.046875"/><stop stop-opacity="1" stop-color="rgb(20.953369%, 18.739319%, 92.417908%)" offset="0.0507812"/><stop stop-opacity="1" stop-color="rgb(21.238708%, 18.733215%, 92.25769%)" offset="0.0546875"/><stop stop-opacity="1" stop-color="rgb(21.522522%, 18.727112%, 92.095947%)" offset="0.0585938"/><stop stop-opacity="1" stop-color="rgb(21.807861%, 18.721008%, 91.93573%)" offset="0.0625"/><stop stop-opacity="1" stop-color="rgb(22.093201%, 18.714905%, 91.773987%)" offset="0.0664062"/><stop stop-opacity="1" stop-color="rgb(22.37854%, 18.708801%, 91.61377%)" offset="0.0703125"/><stop stop-opacity="1" stop-color="rgb(22.662354%, 18.702698%, 91.452026%)" offset="0.0742187"/><stop stop-opacity="1" stop-color="rgb(22.947693%, 18.696594%, 91.291809%)" offset="0.078125"/><stop stop-opacity="1" stop-color="rgb(23.233032%, 18.690491%, 91.130066%)" offset="0.0820312"/><stop stop-opacity="1" stop-color="rgb(23.518372%, 18.684387%, 90.969849%)" offset="0.0859375"/><stop stop-opacity="1" stop-color="rgb(23.803711%, 18.678284%, 90.808105%)" offset="0.0898437"/><stop stop-opacity="1" stop-color="rgb(24.08905%, 18.67218%, 90.647888%)" offset="0.09375"/><stop stop-opacity="1" stop-color="rgb(24.372864%, 18.666077%, 90.487671%)" offset="0.0976562"/><stop stop-opacity="1" stop-color="rgb(24.658203%, 18.659973%, 90.327454%)" offset="0.101562"/><stop stop-opacity="1" stop-color="rgb(24.943542%, 18.65387%, 90.16571%)" offset="0.105469"/><stop stop-opacity="1" stop-color="rgb(25.228882%, 18.647766%, 90.005493%)" offset="0.109375"/><stop stop-opacity="1" stop-color="rgb(25.512695%, 18.641663%, 89.84375%)" offset="0.113281"/><stop stop-opacity="1" stop-color="rgb(25.798035%, 18.635559%, 89.683533%)" offset="0.117188"/><stop stop-opacity="1" stop-color="rgb(26.083374%, 18.629456%, 89.52179%)" offset="0.121094"/><stop stop-opacity="1" stop-color="rgb(26.368713%, 18.623352%, 89.361572%)" offset="0.125"/><stop stop-opacity="1" stop-color="rgb(26.652527%, 18.617249%, 89.199829%)" offset="0.128906"/><stop stop-opacity="1" stop-color="rgb(26.937866%, 18.611145%, 89.039612%)" offset="0.132812"/><stop stop-opacity="1" stop-color="rgb(27.223206%, 18.605042%, 88.877869%)" offset="0.136719"/><stop stop-opacity="1" stop-color="rgb(27.508545%, 18.598938%, 88.717651%)" offset="0.140625"/><stop stop-opacity="1" stop-color="rgb(27.792358%, 18.592834%, 88.557434%)" offset="0.144531"/><stop stop-opacity="1" stop-color="rgb(28.077698%, 18.586731%, 88.397217%)" offset="0.148437"/><stop stop-opacity="1" stop-color="rgb(28.363037%, 18.580627%, 88.235474%)" offset="0.152344"/><stop stop-opacity="1" stop-color="rgb(28.648376%, 18.574524%, 88.075256%)" offset="0.15625"/><stop stop-opacity="1" stop-color="rgb(28.93219%, 18.56842%, 87.913513%)" offset="0.160156"/><stop stop-opacity="1" stop-color="rgb(29.217529%, 18.562317%, 87.753296%)" offset="0.164062"/><stop stop-opacity="1" stop-color="rgb(29.502869%, 18.556213%, 87.591553%)" offset="0.167969"/><stop stop-opacity="1" stop-color="rgb(29.788208%, 18.55011%, 87.431335%)" offset="0.171875"/><stop stop-opacity="1" stop-color="rgb(30.072021%, 18.54248%, 87.269592%)" offset="0.175781"/><stop stop-opacity="1" stop-color="rgb(30.357361%, 18.536377%, 87.109375%)" offset="0.179687"/><stop stop-opacity="1" stop-color="rgb(30.6427%, 18.530273%, 86.947632%)" offset="0.183594"/><stop stop-opacity="1" stop-color="rgb(30.92804%, 18.52417%, 86.787415%)" offset="0.1875"/><stop stop-opacity="1" stop-color="rgb(31.211853%, 18.518066%, 86.627197%)" offset="0.191406"/><stop stop-opacity="1" stop-color="rgb(31.497192%, 18.511963%, 86.46698%)" offset="0.195312"/><stop stop-opacity="1" stop-color="rgb(31.782532%, 18.505859%, 86.305237%)" offset="0.199219"/><stop stop-opacity="1" stop-color="rgb(32.067871%, 18.499756%, 86.14502%)" offset="0.203125"/><stop stop-opacity="1" stop-color="rgb(32.351685%, 18.493652%, 85.983276%)" offset="0.207031"/><stop stop-opacity="1" stop-color="rgb(32.637024%, 18.487549%, 85.823059%)" offset="0.210938"/><stop stop-opacity="1" stop-color="rgb(32.922363%, 18.481445%, 85.661316%)" offset="0.214844"/><stop stop-opacity="1" stop-color="rgb(33.207703%, 18.475342%, 85.501099%)" offset="0.21875"/><stop stop-opacity="1" stop-color="rgb(33.491516%, 18.469238%, 85.339355%)" offset="0.222656"/><stop stop-opacity="1" stop-color="rgb(33.776855%, 18.463135%, 85.179138%)" offset="0.226562"/><stop stop-opacity="1" stop-color="rgb(34.062195%, 18.457031%, 85.017395%)" offset="0.230469"/><stop stop-opacity="1" stop-color="rgb(34.347534%, 18.450928%, 84.857178%)" offset="0.234375"/><stop stop-opacity="1" stop-color="rgb(34.631348%, 18.444824%, 84.695435%)" offset="0.238281"/><stop stop-opacity="1" stop-color="rgb(34.916687%, 18.438721%, 84.535217%)" offset="0.242188"/><stop stop-opacity="1" stop-color="rgb(35.202026%, 18.432617%, 84.375%)" offset="0.246094"/><stop stop-opacity="1" stop-color="rgb(35.487366%, 18.426514%, 84.214783%)" offset="0.25"/><stop stop-opacity="1" stop-color="rgb(35.771179%, 18.42041%, 84.05304%)" offset="0.253906"/><stop stop-opacity="1" stop-color="rgb(36.056519%, 18.414307%, 83.892822%)" offset="0.257812"/><stop stop-opacity="1" stop-color="rgb(36.341858%, 18.408203%, 83.731079%)" offset="0.261719"/><stop stop-opacity="1" stop-color="rgb(36.627197%, 18.4021%, 83.570862%)" offset="0.265625"/><stop stop-opacity="1" stop-color="rgb(36.911011%, 18.395996%, 83.409119%)" offset="0.269531"/><stop stop-opacity="1" stop-color="rgb(37.19635%, 18.389893%, 83.248901%)" offset="0.273437"/><stop stop-opacity="1" stop-color="rgb(37.481689%, 18.383789%, 83.087158%)" offset="0.277344"/><stop stop-opacity="1" stop-color="rgb(37.767029%, 18.377686%, 82.926941%)" offset="0.28125"/><stop stop-opacity="1" stop-color="rgb(38.050842%, 18.371582%, 82.765198%)" offset="0.285156"/><stop stop-opacity="1" stop-color="rgb(38.336182%, 18.365479%, 82.60498%)" offset="0.289062"/><stop stop-opacity="1" stop-color="rgb(38.621521%, 18.359375%, 82.444763%)" offset="0.292969"/><stop stop-opacity="1" stop-color="rgb(38.90686%, 18.353271%, 82.284546%)" offset="0.296875"/><stop stop-opacity="1" stop-color="rgb(39.190674%, 18.347168%, 82.122803%)" offset="0.300781"/><stop stop-opacity="1" stop-color="rgb(39.476013%, 18.341064%, 81.962585%)" offset="0.304687"/><stop stop-opacity="1" stop-color="rgb(39.761353%, 18.334961%, 81.800842%)" offset="0.308594"/><stop stop-opacity="1" stop-color="rgb(40.046692%, 18.328857%, 81.640625%)" offset="0.3125"/><stop stop-opacity="1" stop-color="rgb(40.330505%, 18.322754%, 81.478882%)" offset="0.316406"/><stop stop-opacity="1" stop-color="rgb(40.615845%, 18.31665%, 81.318665%)" offset="0.320312"/><stop stop-opacity="1" stop-color="rgb(40.901184%, 18.310547%, 81.156921%)" offset="0.324219"/><stop stop-opacity="1" stop-color="rgb(41.186523%, 18.304443%, 80.996704%)" offset="0.328125"/><stop stop-opacity="1" stop-color="rgb(41.470337%, 18.29834%, 80.834961%)" offset="0.332031"/><stop stop-opacity="1" stop-color="rgb(41.755676%, 18.292236%, 80.674744%)" offset="0.335937"/><stop stop-opacity="1" stop-color="rgb(42.041016%, 18.286133%, 80.514526%)" offset="0.339844"/><stop stop-opacity="1" stop-color="rgb(42.326355%, 18.280029%, 80.354309%)" offset="0.34375"/><stop stop-opacity="1" stop-color="rgb(42.610168%, 18.273926%, 80.192566%)" offset="0.347656"/><stop stop-opacity="1" stop-color="rgb(42.895508%, 18.267822%, 80.032349%)" offset="0.351562"/><stop stop-opacity="1" stop-color="rgb(43.180847%, 18.261719%, 79.870605%)" offset="0.355469"/><stop stop-opacity="1" stop-color="rgb(43.466187%, 18.255615%, 79.710388%)" offset="0.359375"/><stop stop-opacity="1" stop-color="rgb(43.75%, 18.249512%, 79.548645%)" offset="0.363281"/><stop stop-opacity="1" stop-color="rgb(44.035339%, 18.243408%, 79.388428%)" offset="0.367187"/><stop stop-opacity="1" stop-color="rgb(44.320679%, 18.237305%, 79.226685%)" offset="0.371094"/><stop stop-opacity="1" stop-color="rgb(44.606018%, 18.231201%, 79.066467%)" offset="0.375"/><stop stop-opacity="1" stop-color="rgb(44.889832%, 18.223572%, 78.904724%)" offset="0.378906"/><stop stop-opacity="1" stop-color="rgb(45.175171%, 18.217468%, 78.744507%)" offset="0.382812"/><stop stop-opacity="1" stop-color="rgb(45.46051%, 18.211365%, 78.582764%)" offset="0.386719"/><stop stop-opacity="1" stop-color="rgb(45.74585%, 18.205261%, 78.422546%)" offset="0.390625"/><stop stop-opacity="1" stop-color="rgb(46.029663%, 18.199158%, 78.262329%)" offset="0.394531"/><stop stop-opacity="1" stop-color="rgb(46.315002%, 18.193054%, 78.102112%)" offset="0.398438"/><stop stop-opacity="1" stop-color="rgb(46.600342%, 18.186951%, 77.940369%)" offset="0.402344"/><stop stop-opacity="1" stop-color="rgb(46.885681%, 18.180847%, 77.780151%)" offset="0.40625"/><stop stop-opacity="1" stop-color="rgb(47.169495%, 18.174744%, 77.618408%)" offset="0.410156"/><stop stop-opacity="1" stop-color="rgb(47.454834%, 18.16864%, 77.458191%)" offset="0.414062"/><stop stop-opacity="1" stop-color="rgb(47.740173%, 18.162537%, 77.296448%)" offset="0.417969"/><stop stop-opacity="1" stop-color="rgb(48.025513%, 18.156433%, 77.13623%)" offset="0.421875"/><stop stop-opacity="1" stop-color="rgb(48.309326%, 18.15033%, 76.974487%)" offset="0.425781"/><stop stop-opacity="1" stop-color="rgb(48.594666%, 18.144226%, 76.81427%)" offset="0.429688"/><stop stop-opacity="1" stop-color="rgb(48.880005%, 18.138123%, 76.652527%)" offset="0.433594"/><stop stop-opacity="1" stop-color="rgb(49.165344%, 18.132019%, 76.49231%)" offset="0.4375"/><stop stop-opacity="1" stop-color="rgb(49.449158%, 18.125916%, 76.332092%)" offset="0.441406"/><stop stop-opacity="1" stop-color="rgb(49.734497%, 18.119812%, 76.171875%)" offset="0.445312"/><stop stop-opacity="1" stop-color="rgb(50.019836%, 18.113708%, 76.010132%)" offset="0.449219"/><stop stop-opacity="1" stop-color="rgb(50.305176%, 18.107605%, 75.849915%)" offset="0.453125"/><stop stop-opacity="1" stop-color="rgb(50.588989%, 18.101501%, 75.688171%)" offset="0.457031"/><stop stop-opacity="1" stop-color="rgb(50.874329%, 18.095398%, 75.527954%)" offset="0.460938"/><stop stop-opacity="1" stop-color="rgb(51.159668%, 18.089294%, 75.366211%)" offset="0.464844"/><stop stop-opacity="1" stop-color="rgb(51.445007%, 18.083191%, 75.205994%)" offset="0.46875"/><stop stop-opacity="1" stop-color="rgb(51.728821%, 18.077087%, 75.04425%)" offset="0.472656"/><stop stop-opacity="1" stop-color="rgb(52.01416%, 18.070984%, 74.884033%)" offset="0.476562"/><stop stop-opacity="1" stop-color="rgb(52.2995%, 18.06488%, 74.72229%)" offset="0.480469"/><stop stop-opacity="1" stop-color="rgb(52.584839%, 18.058777%, 74.562073%)" offset="0.484375"/><stop stop-opacity="1" stop-color="rgb(52.868652%, 18.052673%, 74.401855%)" offset="0.488281"/><stop stop-opacity="1" stop-color="rgb(53.153992%, 18.04657%, 74.241638%)" offset="0.492188"/><stop stop-opacity="1" stop-color="rgb(53.439331%, 18.040466%, 74.079895%)" offset="0.496094"/><stop stop-opacity="1" stop-color="rgb(53.72467%, 18.034363%, 73.919678%)" offset="0.5"/><stop stop-opacity="1" stop-color="rgb(54.008484%, 18.028259%, 73.757935%)" offset="0.503906"/><stop stop-opacity="1" stop-color="rgb(54.293823%, 18.022156%, 73.597717%)" offset="0.507812"/><stop stop-opacity="1" stop-color="rgb(54.579163%, 18.016052%, 73.435974%)" offset="0.511719"/><stop stop-opacity="1" stop-color="rgb(54.864502%, 18.009949%, 73.275757%)" offset="0.515625"/><stop stop-opacity="1" stop-color="rgb(55.148315%, 18.003845%, 73.114014%)" offset="0.519531"/><stop stop-opacity="1" stop-color="rgb(55.433655%, 17.997742%, 72.953796%)" offset="0.523437"/><stop stop-opacity="1" stop-color="rgb(55.718994%, 17.991638%, 72.792053%)" offset="0.527344"/><stop stop-opacity="1" stop-color="rgb(56.004333%, 17.985535%, 72.631836%)" offset="0.53125"/><stop stop-opacity="1" stop-color="rgb(56.288147%, 17.979431%, 72.471619%)" offset="0.535156"/><stop stop-opacity="1" stop-color="rgb(56.573486%, 17.973328%, 72.311401%)" offset="0.539062"/><stop stop-opacity="1" stop-color="rgb(56.858826%, 17.967224%, 72.149658%)" offset="0.542969"/><stop stop-opacity="1" stop-color="rgb(57.144165%, 17.961121%, 71.989441%)" offset="0.546875"/><stop stop-opacity="1" stop-color="rgb(57.427979%, 17.955017%, 71.827698%)" offset="0.550781"/><stop stop-opacity="1" stop-color="rgb(57.713318%, 17.948914%, 71.66748%)" offset="0.554687"/><stop stop-opacity="1" stop-color="rgb(57.998657%, 17.94281%, 71.505737%)" offset="0.558594"/><stop stop-opacity="1" stop-color="rgb(58.283997%, 17.936707%, 71.34552%)" offset="0.5625"/><stop stop-opacity="1" stop-color="rgb(58.56781%, 17.930603%, 71.183777%)" offset="0.566406"/><stop stop-opacity="1" stop-color="rgb(58.853149%, 17.9245%, 71.02356%)" offset="0.570312"/><stop stop-opacity="1" stop-color="rgb(59.138489%, 17.918396%, 70.861816%)" offset="0.574219"/><stop stop-opacity="1" stop-color="rgb(59.423828%, 17.912292%, 70.701599%)" offset="0.578125"/><stop stop-opacity="1" stop-color="rgb(59.707642%, 17.904663%, 70.539856%)" offset="0.582031"/><stop stop-opacity="1" stop-color="rgb(59.992981%, 17.89856%, 70.379639%)" offset="0.585937"/><stop stop-opacity="1" stop-color="rgb(60.27832%, 17.892456%, 70.219421%)" offset="0.589844"/><stop stop-opacity="1" stop-color="rgb(60.56366%, 17.886353%, 70.059204%)" offset="0.59375"/><stop stop-opacity="1" stop-color="rgb(60.847473%, 17.880249%, 69.897461%)" offset="0.597656"/><stop stop-opacity="1" stop-color="rgb(61.132812%, 17.874146%, 69.737244%)" offset="0.601562"/><stop stop-opacity="1" stop-color="rgb(61.418152%, 17.868042%, 69.5755%)" offset="0.605469"/><stop stop-opacity="1" stop-color="rgb(61.703491%, 17.861938%, 69.415283%)" offset="0.609375"/><stop stop-opacity="1" stop-color="rgb(61.987305%, 17.855835%, 69.25354%)" offset="0.613281"/><stop stop-opacity="1" stop-color="rgb(62.272644%, 17.849731%, 69.093323%)" offset="0.617187"/><stop stop-opacity="1" stop-color="rgb(62.557983%, 17.843628%, 68.93158%)" offset="0.621094"/><stop stop-opacity="1" stop-color="rgb(62.843323%, 17.837524%, 68.771362%)" offset="0.625"/><stop stop-opacity="1" stop-color="rgb(63.127136%, 17.831421%, 68.609619%)" offset="0.628906"/><stop stop-opacity="1" stop-color="rgb(63.412476%, 17.825317%, 68.449402%)" offset="0.632812"/><stop stop-opacity="1" stop-color="rgb(63.697815%, 17.819214%, 68.289185%)" offset="0.636719"/><stop stop-opacity="1" stop-color="rgb(63.983154%, 17.81311%, 68.128967%)" offset="0.640625"/><stop stop-opacity="1" stop-color="rgb(64.266968%, 17.807007%, 67.967224%)" offset="0.644531"/><stop stop-opacity="1" stop-color="rgb(64.552307%, 17.800903%, 67.807007%)" offset="0.648437"/><stop stop-opacity="1" stop-color="rgb(64.837646%, 17.7948%, 67.645264%)" offset="0.652344"/><stop stop-opacity="1" stop-color="rgb(65.122986%, 17.788696%, 67.485046%)" offset="0.65625"/><stop stop-opacity="1" stop-color="rgb(65.406799%, 17.782593%, 67.323303%)" offset="0.660156"/><stop stop-opacity="1" stop-color="rgb(65.692139%, 17.776489%, 67.163086%)" offset="0.664062"/><stop stop-opacity="1" stop-color="rgb(65.977478%, 17.770386%, 67.001343%)" offset="0.667969"/><stop stop-opacity="1" stop-color="rgb(66.262817%, 17.764282%, 66.841125%)" offset="0.671875"/><stop stop-opacity="1" stop-color="rgb(66.546631%, 17.758179%, 66.679382%)" offset="0.675781"/><stop stop-opacity="1" stop-color="rgb(66.83197%, 17.752075%, 66.519165%)" offset="0.679687"/><stop stop-opacity="1" stop-color="rgb(67.11731%, 17.745972%, 66.358948%)" offset="0.683594"/><stop stop-opacity="1" stop-color="rgb(67.402649%, 17.739868%, 66.19873%)" offset="0.6875"/><stop stop-opacity="1" stop-color="rgb(67.686462%, 17.733765%, 66.036987%)" offset="0.691406"/><stop stop-opacity="1" stop-color="rgb(67.971802%, 17.727661%, 65.87677%)" offset="0.695312"/><stop stop-opacity="1" stop-color="rgb(68.257141%, 17.721558%, 65.715027%)" offset="0.699219"/><stop stop-opacity="1" stop-color="rgb(68.54248%, 17.715454%, 65.55481%)" offset="0.703125"/><stop stop-opacity="1" stop-color="rgb(68.826294%, 17.709351%, 65.393066%)" offset="0.707031"/><stop stop-opacity="1" stop-color="rgb(69.111633%, 17.703247%, 65.232849%)" offset="0.710937"/><stop stop-opacity="1" stop-color="rgb(69.396973%, 17.697144%, 65.071106%)" offset="0.714844"/><stop stop-opacity="1" stop-color="rgb(69.682312%, 17.69104%, 64.910889%)" offset="0.71875"/><stop stop-opacity="1" stop-color="rgb(69.966125%, 17.684937%, 64.749146%)" offset="0.722656"/><stop stop-opacity="1" stop-color="rgb(70.251465%, 17.678833%, 64.588928%)" offset="0.726562"/><stop stop-opacity="1" stop-color="rgb(70.536804%, 17.672729%, 64.427185%)" offset="0.730469"/><stop stop-opacity="1" stop-color="rgb(70.822144%, 17.666626%, 64.266968%)" offset="0.734375"/><stop stop-opacity="1" stop-color="rgb(71.105957%, 17.660522%, 64.10675%)" offset="0.738281"/><stop stop-opacity="1" stop-color="rgb(71.391296%, 17.654419%, 63.946533%)" offset="0.742187"/><stop stop-opacity="1" stop-color="rgb(71.676636%, 17.648315%, 63.78479%)" offset="0.746094"/><stop stop-opacity="1" stop-color="rgb(71.961975%, 17.642212%, 63.624573%)" offset="0.75"/><stop stop-opacity="1" stop-color="rgb(72.245789%, 17.636108%, 63.46283%)" offset="0.753906"/><stop stop-opacity="1" stop-color="rgb(72.531128%, 17.630005%, 63.302612%)" offset="0.757812"/><stop stop-opacity="1" stop-color="rgb(72.816467%, 17.623901%, 63.140869%)" offset="0.761719"/><stop stop-opacity="1" stop-color="rgb(73.101807%, 17.617798%, 62.980652%)" offset="0.765625"/><stop stop-opacity="1" stop-color="rgb(73.38562%, 17.611694%, 62.818909%)" offset="0.769531"/><stop stop-opacity="1" stop-color="rgb(73.670959%, 17.605591%, 62.658691%)" offset="0.773438"/><stop stop-opacity="1" stop-color="rgb(73.956299%, 17.599487%, 62.496948%)" offset="0.777344"/><stop stop-opacity="1" stop-color="rgb(74.241638%, 17.593384%, 62.336731%)" offset="0.78125"/><stop stop-opacity="1" stop-color="rgb(74.525452%, 17.585754%, 62.176514%)" offset="0.785156"/><stop stop-opacity="1" stop-color="rgb(74.810791%, 17.579651%, 62.016296%)" offset="0.789062"/><stop stop-opacity="1" stop-color="rgb(75.09613%, 17.573547%, 61.854553%)" offset="0.792969"/><stop stop-opacity="1" stop-color="rgb(75.38147%, 17.567444%, 61.694336%)" offset="0.796875"/><stop stop-opacity="1" stop-color="rgb(75.665283%, 17.56134%, 61.532593%)" offset="0.800781"/><stop stop-opacity="1" stop-color="rgb(75.950623%, 17.555237%, 61.372375%)" offset="0.804688"/><stop stop-opacity="1" stop-color="rgb(76.235962%, 17.549133%, 61.210632%)" offset="0.808594"/><stop stop-opacity="1" stop-color="rgb(76.521301%, 17.54303%, 61.050415%)" offset="0.8125"/><stop stop-opacity="1" stop-color="rgb(76.805115%, 17.536926%, 60.888672%)" offset="0.816406"/><stop stop-opacity="1" stop-color="rgb(77.090454%, 17.530823%, 60.728455%)" offset="0.820312"/><stop stop-opacity="1" stop-color="rgb(77.375793%, 17.524719%, 60.566711%)" offset="0.824219"/><stop stop-opacity="1" stop-color="rgb(77.661133%, 17.518616%, 60.406494%)" offset="0.828125"/><stop stop-opacity="1" stop-color="rgb(77.944946%, 17.512512%, 60.246277%)" offset="0.832031"/><stop stop-opacity="1" stop-color="rgb(78.230286%, 17.506409%, 60.08606%)" offset="0.835938"/><stop stop-opacity="1" stop-color="rgb(78.515625%, 17.500305%, 59.924316%)" offset="0.839844"/><stop stop-opacity="1" stop-color="rgb(78.800964%, 17.494202%, 59.764099%)" offset="0.84375"/><stop stop-opacity="1" stop-color="rgb(79.084778%, 17.488098%, 59.602356%)" offset="0.847656"/><stop stop-opacity="1" stop-color="rgb(79.370117%, 17.481995%, 59.442139%)" offset="0.851562"/><stop stop-opacity="1" stop-color="rgb(79.655457%, 17.475891%, 59.280396%)" offset="0.855469"/><stop stop-opacity="1" stop-color="rgb(79.940796%, 17.469788%, 59.120178%)" offset="0.859375"/><stop stop-opacity="1" stop-color="rgb(80.224609%, 17.463684%, 58.958435%)" offset="0.863281"/><stop stop-opacity="1" stop-color="rgb(80.509949%, 17.457581%, 58.798218%)" offset="0.867188"/><stop stop-opacity="1" stop-color="rgb(80.795288%, 17.451477%, 58.636475%)" offset="0.871094"/><stop stop-opacity="1" stop-color="rgb(81.080627%, 17.445374%, 58.476257%)" offset="0.875"/><stop stop-opacity="1" stop-color="rgb(81.364441%, 17.43927%, 58.314514%)" offset="0.878906"/><stop stop-opacity="1" stop-color="rgb(81.64978%, 17.433167%, 58.154297%)" offset="0.882812"/><stop stop-opacity="1" stop-color="rgb(81.93512%, 17.427063%, 57.99408%)" offset="0.886719"/><stop stop-opacity="1" stop-color="rgb(82.220459%, 17.420959%, 57.833862%)" offset="0.890625"/><stop stop-opacity="1" stop-color="rgb(82.504272%, 17.414856%, 57.672119%)" offset="0.894531"/><stop stop-opacity="1" stop-color="rgb(82.789612%, 17.408752%, 57.511902%)" offset="0.898438"/><stop stop-opacity="1" stop-color="rgb(83.074951%, 17.402649%, 57.350159%)" offset="0.902344"/><stop stop-opacity="1" stop-color="rgb(83.360291%, 17.396545%, 57.189941%)" offset="0.90625"/><stop stop-opacity="1" stop-color="rgb(83.644104%, 17.390442%, 57.028198%)" offset="0.910156"/><stop stop-opacity="1" stop-color="rgb(83.929443%, 17.384338%, 56.867981%)" offset="0.914062"/><stop stop-opacity="1" stop-color="rgb(84.214783%, 17.378235%, 56.706238%)" offset="0.917969"/><stop stop-opacity="1" stop-color="rgb(84.500122%, 17.372131%, 56.546021%)" offset="0.921875"/><stop stop-opacity="1" stop-color="rgb(84.783936%, 17.366028%, 56.384277%)" offset="0.925781"/><stop stop-opacity="1" stop-color="rgb(85.069275%, 17.359924%, 56.22406%)" offset="0.929688"/><stop stop-opacity="1" stop-color="rgb(85.354614%, 17.353821%, 56.063843%)" offset="0.933594"/><stop stop-opacity="1" stop-color="rgb(85.639954%, 17.347717%, 55.903625%)" offset="0.9375"/><stop stop-opacity="1" stop-color="rgb(85.923767%, 17.341614%, 55.741882%)" offset="0.941406"/><stop stop-opacity="1" stop-color="rgb(86.209106%, 17.33551%, 55.581665%)" offset="0.945312"/><stop stop-opacity="1" stop-color="rgb(86.494446%, 17.329407%, 55.419922%)" offset="0.949219"/><stop stop-opacity="1" stop-color="rgb(86.779785%, 17.323303%, 55.259705%)" offset="0.953125"/><stop stop-opacity="1" stop-color="rgb(87.063599%, 17.3172%, 55.097961%)" offset="0.957031"/><stop stop-opacity="1" stop-color="rgb(87.348938%, 17.311096%, 54.937744%)" offset="0.960938"/><stop stop-opacity="1" stop-color="rgb(87.634277%, 17.304993%, 54.776001%)" offset="0.964844"/><stop stop-opacity="1" stop-color="rgb(87.919617%, 17.298889%, 54.615784%)" offset="0.96875"/><stop stop-opacity="1" stop-color="rgb(88.20343%, 17.292786%, 54.454041%)" offset="0.972656"/><stop stop-opacity="1" stop-color="rgb(88.48877%, 17.286682%, 54.293823%)" offset="0.976562"/><stop stop-opacity="1" stop-color="rgb(88.774109%, 17.280579%, 54.133606%)" offset="0.980469"/><stop stop-opacity="1" stop-color="rgb(89.059448%, 17.274475%, 53.973389%)" offset="0.984375"/><stop stop-opacity="1" stop-color="rgb(89.343262%, 17.266846%, 53.811646%)" offset="0.988281"/><stop stop-opacity="1" stop-color="rgb(89.628601%, 17.260742%, 53.651428%)" offset="0.992188"/><stop stop-opacity="1" stop-color="rgb(89.91394%, 17.254639%, 53.489685%)" offset="0.996094"/><stop stop-opacity="1" stop-color="rgb(90.19928%, 17.248535%, 53.329468%)" offset="1"/></linearGradient><mask id="607d7601be"><g filter="url(#e4aeda1bd7)"><rect x="-96" width="1152" fill="#000000" y="-47.999998" height="575.99998" fill-opacity="0.28"/></g></mask><clipPath id="763bb9a842"><path d="M 10 10 L 874 10 L 874 394 L 10 394 Z M 10 10 " clip-rule="nonzero"/></clipPath><clipPath id="49ba1acccf"><path d="M 25.75 10 L 858.25 10 C 862.425781 10 866.433594 11.660156 869.386719 14.613281 C 872.339844 17.566406 874 21.574219 874 25.75 L 874 378.25 C 874 382.425781 872.339844 386.433594 869.386719 389.386719 C 866.433594 392.339844 862.425781 394 858.25 394 L 25.75 394 C 21.574219 394 17.566406 392.339844 14.613281 389.386719 C 11.660156 386.433594 10 382.425781 10 378.25 L 10 25.75 C 10 21.574219 11.660156 17.566406 14.613281 14.613281 C 17.566406 11.660156 21.574219 10 25.75 10 Z M 25.75 10 " clip-rule="nonzero"/></clipPath><clipPath id="5e07a75e30"><path d="M 0 0 L 864 0 L 864 384 L 0 384 Z M 0 0 " clip-rule="nonzero"/></clipPath><clipPath id="4ba0e2fcdc"><path d="M 15.75 0 L 848.25 0 C 852.425781 0 856.433594 1.660156 859.386719 4.613281 C 862.339844 7.566406 864 11.574219 864 15.75 L 864 368.25 C 864 372.425781 862.339844 376.433594 859.386719 379.386719 C 856.433594 382.339844 852.425781 384 848.25 384 L 15.75 384 C 11.574219 384 7.566406 382.339844 4.613281 379.386719 C 1.660156 376.433594 0 372.425781 0 368.25 L 0 15.75 C 0 11.574219 1.660156 7.566406 4.613281 4.613281 C 7.566406 1.660156 11.574219 0 15.75 0 Z M 15.75 0 " clip-rule="nonzero"/></clipPath><clipPath id="221257e029"><rect x="0" width="864" y="0" height="384"/></clipPath><clipPath id="8a70b3608c"><rect x="0" width="885" y="0" height="404"/></clipPath><clipPath id="f86c3298df"><path d="M 0.800781 0.398438 L 416 0.398438 L 416 223.601562 L 0.800781 223.601562 Z M 0.800781 0.398438 " clip-rule="nonzero"/></clipPath><clipPath id="9fb2e65558"><rect x="0" width="416" y="0" height="224"/></clipPath><clipPath id="3dfce8567a"><path d="M 419.800781 153.242188 L 451.625 153.242188 L 451.625 185.066406 L 419.800781 185.066406 Z M 419.800781 153.242188 " clip-rule="nonzero"/></clipPath><clipPath id="ad9d02c244"><path d="M 435.710938 153.242188 C 426.925781 153.242188 419.800781 160.367188 419.800781 169.152344 C 419.800781 177.941406 426.925781 185.066406 435.710938 185.066406 C 444.5 185.066406 451.625 177.941406 451.625 169.152344 C 451.625 160.367188 444.5 153.242188 435.710938 153.242188 Z M 435.710938 153.242188 " clip-rule="nonzero"/></clipPath><clipPath id="bff8e5d3e9"><path d="M 0.800781 0.242188 L 32.625 0.242188 L 32.625 32.066406 L 0.800781 32.066406 Z M 0.800781 0.242188 " clip-rule="nonzero"/></clipPath><clipPath id="bb417ff642"><path d="M 16.710938 0.242188 C 7.925781 0.242188 0.800781 7.367188 0.800781 16.152344 C 0.800781 24.941406 7.925781 32.066406 16.710938 32.066406 C 25.5 32.066406 32.625 24.941406 32.625 16.152344 C 32.625 7.367188 25.5 0.242188 16.710938 0.242188 Z M 16.710938 0.242188 " clip-rule="nonzero"/></clipPath><clipPath id="80d6334afb"><rect x="0" width="33" y="0" height="33"/></clipPath><clipPath id="18ba8850f9"><rect x="0" width="452" y="0" height="224"/></clipPath><clipPath id="22347e7a39"><rect x="0" width="670" y="0" height="38"/></clipPath><clipPath id="d720de44f5"><rect x="0" width="52" y="0" height="252"/></clipPath></defs><rect x="-96" width="1152" fill="#ffffff" y="-47.999998" height="575.99998" fill-opacity="1"/><rect x="-96" fill="url(#ba5577b5d4)" width="1152" y="-47.999998" height="575.99998"/><g mask="url(#607d7601be)"><g transform="matrix(1, 0, 0, 1, 38, 38)"><g clip-path="url(#8a70b3608c)"><g clip-path="url(#763bb9a842)"><g clip-path="url(#49ba1acccf)"><g transform="matrix(1, 0, 0, 1, 10, 10)"><g clip-path="url(#221257e029)"><g clip-path="url(#5e07a75e30)"><g clip-path="url(#4ba0e2fcdc)"><rect x="-397.44" width="1658.88" fill="#2b2a7a" y="-222.719994" height="829.439971" fill-opacity="1"/></g></g></g></g><path stroke-linecap="butt" transform="matrix(0.75, 0, 0, 0.75, 10.000013, 10.000004)" fill="none" stroke-linejoin="miter" d="M 20.999985 -0.00000498667 L 1131.000142 -0.00000498667 C 1136.567851 -0.00000498667 1141.911602 2.213537 1145.849102 6.151038 C 1149.786603 10.088538 1152.000145 15.432289 1152.000145 20.999998 L 1152.000145 491.000064 C 1152.000145 496.567773 1149.786603 501.911524 1145.849102 505.849025 C 1141.911602 509.786525 1136.567851 512.000067 1131.000142 512.000067 L 20.999985 512.000067 C 15.432276 512.000067 10.088525 509.786525 6.151025 505.849025 C 2.213524 501.911524 -0.0000177333 496.567773 -0.0000177333 491.000064 L -0.0000177333 20.999998 C -0.0000177333 15.432289 2.213524 10.088538 6.151025 6.151038 C 10.088525 2.213537 15.432276 -0.00000498667 20.999985 -0.00000498667 Z M 20.999985 -0.00000498667 " stroke="#ffffff" stroke-width="6" stroke-opacity="1" stroke-miterlimit="4"/></g></g></g></g></g><g transform="matrix(1, 0, 0, 1, 436, 110)"><g clip-path="url(#18ba8850f9)"><g clip-path="url(#f86c3298df)"><g transform="matrix(1, 0, 0, 1, -0.000000000000113687, -0.000000000000028422)"><g clip-path="url(#9fb2e65558)"><g fill="#ffffff" fill-opacity="1"><g transform="translate(0.94994, 178.969113)"><g><path d="M 11.609375 0 L 11.609375 -134.15625 L 102.921875 -134.15625 L 102.921875 -111.109375 L 39.171875 -111.109375 L 39.171875 -79.0625 L 98.0625 -79.0625 L 98.0625 -56.453125 L 39.171875 -56.453125 L 39.171875 -23.046875 L 103.015625 -23.046875 L 103.015625 0 Z M 11.609375 0 "/></g></g></g><g fill="#ffffff" fill-opacity="1"><g transform="translate(104.665674, 178.969113)"><g><path d="M 55.734375 1.984375 C 45.773438 1.984375 37.128906 -0.160156 29.796875 -4.453125 C 22.472656 -8.742188 16.816406 -14.742188 12.828125 -22.453125 C 8.835938 -30.171875 6.84375 -39.132812 6.84375 -49.34375 C 6.84375 -59.601562 8.835938 -68.601562 12.828125 -76.34375 C 16.816406 -84.09375 22.472656 -90.113281 29.796875 -94.40625 C 37.128906 -98.695312 45.773438 -100.84375 55.734375 -100.84375 C 61.796875 -100.84375 67.363281 -100.046875 72.4375 -98.453125 C 77.507812 -96.867188 81.992188 -94.578125 85.890625 -91.578125 C 89.796875 -88.578125 92.992188 -84.957031 95.484375 -80.71875 C 97.972656 -76.488281 99.640625 -71.734375 100.484375 -66.453125 L 75.28125 -62.84375 C 74.738281 -65.425781 73.925781 -67.738281 72.84375 -69.78125 C 71.757812 -71.820312 70.40625 -73.578125 68.78125 -75.046875 C 67.164062 -76.515625 65.289062 -77.640625 63.15625 -78.421875 C 61.03125 -79.203125 58.644531 -79.59375 56 -79.59375 C 51.257812 -79.59375 47.285156 -78.332031 44.078125 -75.8125 C 40.867188 -73.289062 38.421875 -69.765625 36.734375 -65.234375 C 35.054688 -60.703125 34.21875 -55.4375 34.21875 -49.4375 C 34.21875 -43.488281 35.054688 -38.25 36.734375 -33.71875 C 38.421875 -29.1875 40.867188 -25.644531 44.078125 -23.09375 C 47.285156 -20.539062 51.257812 -19.265625 56 -19.265625 C 58.644531 -19.265625 61.03125 -19.671875 63.15625 -20.484375 C 65.289062 -21.296875 67.179688 -22.453125 68.828125 -23.953125 C 70.484375 -25.453125 71.863281 -27.265625 72.96875 -29.390625 C 74.082031 -31.523438 74.878906 -33.941406 75.359375 -36.640625 L 100.578125 -32.953125 C 99.796875 -27.609375 98.160156 -22.804688 95.671875 -18.546875 C 93.179688 -14.285156 89.984375 -10.609375 86.078125 -7.515625 C 82.179688 -4.421875 77.664062 -2.0625 72.53125 -0.4375 C 67.394531 1.175781 61.796875 1.984375 55.734375 1.984375 Z M 55.734375 1.984375 "/></g></g></g><g fill="#ffffff" fill-opacity="1"><g transform="translate(203.519054, 178.969113)"><g><path d="M 37.90625 -57.09375 L 37.90625 0 L 11.078125 0 L 11.078125 -134.15625 L 37.546875 -134.15625 L 37.546875 -74.375 L 34.75 -74.375 C 37.457031 -82.78125 41.523438 -89.289062 46.953125 -93.90625 C 52.390625 -98.53125 59.367188 -100.84375 67.890625 -100.84375 C 74.796875 -100.84375 80.828125 -99.34375 85.984375 -96.34375 C 91.148438 -93.34375 95.15625 -89.019531 98 -83.375 C 100.851562 -77.738281 102.28125 -70.957031 102.28125 -63.03125 L 102.28125 0 L 75.359375 0 L 75.359375 -58.25 C 75.359375 -64.5625 73.769531 -69.472656 70.59375 -72.984375 C 67.414062 -76.492188 62.972656 -78.25 57.265625 -78.25 C 53.484375 -78.25 50.132812 -77.421875 47.21875 -75.765625 C 44.3125 -74.117188 42.03125 -71.734375 40.375 -68.609375 C 38.726562 -65.492188 37.90625 -61.65625 37.90625 -57.09375 Z M 37.90625 -57.09375 "/></g></g></g><g fill="#ffffff" fill-opacity="1"><g transform="translate(308.495379, 178.969113)"><g><path d="M 55.921875 1.984375 C 45.890625 1.984375 37.195312 -0.160156 29.84375 -4.453125 C 22.488281 -8.742188 16.816406 -14.742188 12.828125 -22.453125 C 8.835938 -30.171875 6.84375 -39.132812 6.84375 -49.34375 C 6.84375 -59.664062 8.835938 -68.679688 12.828125 -76.390625 C 16.816406 -84.109375 22.488281 -90.113281 29.84375 -94.40625 C 37.195312 -98.695312 45.890625 -100.84375 55.921875 -100.84375 C 65.878906 -100.84375 74.535156 -98.695312 81.890625 -94.40625 C 89.242188 -90.113281 94.914062 -84.109375 98.90625 -76.390625 C 102.90625 -68.679688 104.90625 -59.664062 104.90625 -49.34375 C 104.90625 -39.132812 102.90625 -30.171875 98.90625 -22.453125 C 94.914062 -14.742188 89.242188 -8.742188 81.890625 -4.453125 C 74.535156 -0.160156 65.878906 1.984375 55.921875 1.984375 Z M 55.921875 -19.265625 C 60.597656 -19.265625 64.539062 -20.554688 67.75 -23.140625 C 70.96875 -25.722656 73.414062 -29.28125 75.09375 -33.8125 C 76.769531 -38.34375 77.609375 -43.550781 77.609375 -49.4375 C 77.609375 -55.375 76.769531 -60.59375 75.09375 -65.09375 C 73.414062 -69.601562 70.96875 -73.144531 67.75 -75.71875 C 64.539062 -78.300781 60.597656 -79.59375 55.921875 -79.59375 C 51.234375 -79.59375 47.269531 -78.300781 44.03125 -75.71875 C 40.789062 -73.144531 38.34375 -69.601562 36.6875 -65.09375 C 35.039062 -60.59375 34.21875 -55.375 34.21875 -49.4375 C 34.21875 -43.550781 35.039062 -38.34375 36.6875 -33.8125 C 38.34375 -29.28125 40.773438 -25.722656 43.984375 -23.140625 C 47.191406 -20.554688 51.171875 -19.265625 55.921875 -19.265625 Z M 55.921875 -19.265625 "/></g></g></g></g></g></g><g clip-path="url(#3dfce8567a)"><g clip-path="url(#ad9d02c244)"><g transform="matrix(1, 0, 0, 1, 419, 153)"><g clip-path="url(#80d6334afb)"><g clip-path="url(#bff8e5d3e9)"><g clip-path="url(#bb417ff642)"><path fill="#ffffff" d="M 0.800781 0.242188 L 32.625 0.242188 L 32.625 32.066406 L 0.800781 32.066406 Z M 0.800781 0.242188 " fill-opacity="1" fill-rule="nonzero"/></g></g></g></g></g></g></g></g><path stroke-linecap="round" transform="matrix(15.062499, 0, 0, 15.062499, 57.376916, 41.249997)" fill-opacity="1" fill="#ffffff" fill-rule="nonzero" stroke-linejoin="round" d="M 12.499874 14.000001 C 12.499874 14.032937 12.496761 14.065354 12.490278 14.097511 C 12.484054 14.129669 12.474459 14.161049 12.46201 14.191391 C 12.449303 14.221733 12.434002 14.25052 12.415849 14.27775 C 12.397436 14.30498 12.376689 14.330395 12.353608 14.353476 C 12.330268 14.376816 12.305112 14.397563 12.277882 14.415717 C 12.250392 14.43387 12.221606 14.44943 12.191264 14.461879 C 12.160921 14.474586 12.129801 14.483922 12.097643 14.490406 C 12.065226 14.496889 12.032809 14.500001 11.999873 14.500001 C 11.967197 14.500001 11.93478 14.496889 11.902363 14.490406 C 11.870205 14.483922 11.839085 14.474586 11.808743 14.461879 C 11.7784 14.44943 11.749614 14.43387 11.722125 14.415717 C 11.694894 14.397563 11.669739 14.376816 11.646398 14.353476 C 11.623317 14.330395 11.602571 14.30498 11.584158 14.27775 C 11.566004 14.25052 11.550703 14.221733 11.537996 14.191391 C 11.525548 14.161049 11.515952 14.129669 11.509728 14.097511 C 11.503245 14.065354 11.499873 14.032937 11.499873 14.000001 C 11.499873 13.967065 11.503245 13.934648 11.509728 13.902491 C 11.515952 13.870333 11.525548 13.838953 11.537996 13.808611 C 11.550703 13.778269 11.566004 13.749482 11.584158 13.722252 C 11.602571 13.695022 11.623317 13.669607 11.646398 13.646526 C 11.669739 13.623186 11.694894 13.602439 11.722125 13.584285 C 11.749614 13.566132 11.7784 13.550572 11.808743 13.538123 C 11.839085 13.525416 11.870205 13.51608 11.902363 13.509596 C 11.93478 13.503113 11.967197 13.500001 11.999873 13.500001 C 12.032809 13.500001 12.065226 13.503113 12.097643 13.509596 C 12.129801 13.51608 12.160921 13.525416 12.191264 13.538123 C 12.221606 13.550572 12.250392 13.566132 12.277882 13.584285 C 12.305112 13.602439 12.330268 13.623186 12.353608 13.646526 C 12.376689 13.669607 12.397436 13.695022 12.415849 13.722252 C 12.434002 13.749482 12.449303 13.778269 12.46201 13.808611 C 12.474459 13.838953 12.484054 13.870333 12.490278 13.902491 C 12.496761 13.934648 12.499874 13.967065 12.499874 14.000001 Z M 12.499874 14.000001 " stroke="#ffffff" stroke-width="2" stroke-opacity="1" stroke-miterlimit="4"/><path stroke-linecap="round" transform="matrix(15.062499, 0, 0, 15.062499, 57.376916, 41.249997)" fill="none" stroke-linejoin="round" d="M 7.499873 14.000001 C 7.499873 11.514783 9.514656 9.500001 11.999873 9.500001 C 14.485351 9.500001 16.499874 11.514783 16.499874 14.000001 " stroke="#ffffff" stroke-width="2" stroke-opacity="1" stroke-miterlimit="4"/><path stroke-linecap="round" transform="matrix(15.062499, 0, 0, 15.062499, 57.376916, 41.249997)" fill="none" stroke-linejoin="round" d="M 2.999873 14.000001 C 2.999873 9.029565 7.029438 5 11.999873 5 C 16.970569 5 20.999874 9.029565 20.999874 14.000001 " stroke="#ffffff" stroke-width="2" stroke-opacity="1" stroke-miterlimit="4"/><path stroke-linecap="round" transform="matrix(15.062499, 0, 0, 15.062499, 57.376916, 41.249997)" fill="none" stroke-linejoin="round" d="M 3.999873 19.000001 L 19.999874 19.000001 " stroke="#ffffff" stroke-width="2" stroke-opacity="1" stroke-miterlimit="4"/><g transform="matrix(1, 0, 0, 1, 146, 366)"><g clip-path="url(#22347e7a39)"><g fill="#ffffff" fill-opacity="1"><g transform="translate(0.43087, 29.560473)"><g><path d="M 18.890625 -3.9375 L 18.890625 0 L 2.515625 0 L 2.515625 -21.15625 L 18.5 -21.15625 L 18.5 -17.234375 L 7.375 -17.234375 L 7.375 -12.640625 L 17.203125 -12.640625 L 17.203125 -8.828125 L 7.375 -8.828125 L 7.375 -3.9375 Z M 18.890625 -3.9375 "/></g></g></g><g fill="#ffffff" fill-opacity="1"><g transform="translate(19.205846, 29.560473)"><g><path d="M 18.328125 -16.265625 L 11.453125 0 L 6.59375 0 L -0.234375 -16.265625 L 4.625 -16.265625 L 9.125 -5.203125 L 13.78125 -16.265625 Z M 18.328125 -16.265625 "/></g></g></g><g fill="#ffffff" fill-opacity="1"><g transform="translate(35.924943, 29.560473)"><g><path d="M 2.171875 -16.265625 L 6.890625 -16.265625 L 6.890625 0 L 2.171875 0 Z M 4.546875 -18.53125 C 3.671875 -18.53125 2.960938 -18.78125 2.421875 -19.28125 C 1.878906 -19.789062 1.609375 -20.414062 1.609375 -21.15625 C 1.609375 -21.90625 1.878906 -22.53125 2.421875 -23.03125 C 2.960938 -23.539062 3.671875 -23.796875 4.546875 -23.796875 C 5.410156 -23.796875 6.113281 -23.550781 6.65625 -23.0625 C 7.195312 -22.582031 7.46875 -21.976562 7.46875 -21.25 C 7.46875 -20.46875 7.195312 -19.816406 6.65625 -19.296875 C 6.113281 -18.785156 5.410156 -18.53125 4.546875 -18.53125 Z M 4.546875 -18.53125 "/></g></g></g><g fill="#ffffff" fill-opacity="1"><g transform="translate(43.664649, 29.560473)"><g><path d="M 18.75 -22.4375 L 18.75 0 L 14.234375 0 L 14.234375 -1.875 C 13.066406 -0.46875 11.375 0.234375 9.15625 0.234375 C 7.625 0.234375 6.238281 -0.101562 5 -0.78125 C 3.757812 -1.46875 2.785156 -2.445312 2.078125 -3.71875 C 1.378906 -4.988281 1.03125 -6.460938 1.03125 -8.140625 C 1.03125 -9.804688 1.378906 -11.273438 2.078125 -12.546875 C 2.785156 -13.816406 3.757812 -14.796875 5 -15.484375 C 6.238281 -16.171875 7.625 -16.515625 9.15625 -16.515625 C 11.238281 -16.515625 12.863281 -15.859375 14.03125 -14.546875 L 14.03125 -22.4375 Z M 9.984375 -3.625 C 11.171875 -3.625 12.15625 -4.03125 12.9375 -4.84375 C 13.726562 -5.664062 14.125 -6.765625 14.125 -8.140625 C 14.125 -9.503906 13.726562 -10.59375 12.9375 -11.40625 C 12.15625 -12.226562 11.171875 -12.640625 9.984375 -12.640625 C 8.765625 -12.640625 7.765625 -12.226562 6.984375 -11.40625 C 6.203125 -10.59375 5.8125 -9.503906 5.8125 -8.140625 C 5.8125 -6.765625 6.203125 -5.664062 6.984375 -4.84375 C 7.765625 -4.03125 8.765625 -3.625 9.984375 -3.625 Z M 9.984375 -3.625 "/></g></g></g><g fill="#ffffff" fill-opacity="1"><g transform="translate(63.225706, 29.560473)"><g><path d="M 18.109375 -8.078125 C 18.109375 -8.015625 18.078125 -7.585938 18.015625 -6.796875 L 5.71875 -6.796875 C 5.9375 -5.796875 6.457031 -5 7.28125 -4.40625 C 8.113281 -3.820312 9.144531 -3.53125 10.375 -3.53125 C 11.21875 -3.53125 11.96875 -3.65625 12.625 -3.90625 C 13.28125 -4.164062 13.890625 -4.566406 14.453125 -5.109375 L 16.96875 -2.390625 C 15.425781 -0.640625 13.1875 0.234375 10.25 0.234375 C 8.414062 0.234375 6.789062 -0.117188 5.375 -0.828125 C 3.96875 -1.546875 2.878906 -2.539062 2.109375 -3.8125 C 1.347656 -5.082031 0.96875 -6.523438 0.96875 -8.140625 C 0.96875 -9.722656 1.34375 -11.15625 2.09375 -12.4375 C 2.851562 -13.71875 3.894531 -14.71875 5.21875 -15.4375 C 6.539062 -16.15625 8.015625 -16.515625 9.640625 -16.515625 C 11.234375 -16.515625 12.675781 -16.171875 13.96875 -15.484375 C 15.257812 -14.796875 16.269531 -13.8125 17 -12.53125 C 17.738281 -11.25 18.109375 -9.765625 18.109375 -8.078125 Z M 9.671875 -12.9375 C 8.609375 -12.9375 7.710938 -12.632812 6.984375 -12.03125 C 6.253906 -11.425781 5.8125 -10.597656 5.65625 -9.546875 L 13.671875 -9.546875 C 13.503906 -10.578125 13.054688 -11.398438 12.328125 -12.015625 C 11.609375 -12.628906 10.722656 -12.9375 9.671875 -12.9375 Z M 9.671875 -12.9375 "/></g></g></g><g fill="#ffffff" fill-opacity="1"><g transform="translate(80.942515, 29.560473)"><g><path d="M 12.0625 -16.515625 C 14.082031 -16.515625 15.710938 -15.90625 16.953125 -14.6875 C 18.191406 -13.476562 18.8125 -11.6875 18.8125 -9.3125 L 18.8125 0 L 14.09375 0 L 14.09375 -8.59375 C 14.09375 -9.875 13.804688 -10.832031 13.234375 -11.46875 C 12.671875 -12.101562 11.859375 -12.421875 10.796875 -12.421875 C 9.609375 -12.421875 8.660156 -12.050781 7.953125 -11.3125 C 7.242188 -10.582031 6.890625 -9.492188 6.890625 -8.046875 L 6.890625 0 L 2.171875 0 L 2.171875 -16.265625 L 6.6875 -16.265625 L 6.6875 -14.359375 C 7.3125 -15.046875 8.085938 -15.578125 9.015625 -15.953125 C 9.941406 -16.328125 10.957031 -16.515625 12.0625 -16.515625 Z M 12.0625 -16.515625 "/></g></g></g><g fill="#ffffff" fill-opacity="1"><g transform="translate(100.654743, 29.560473)"><g><path d="M 10.03125 0.234375 C 8.300781 0.234375 6.742188 -0.117188 5.359375 -0.828125 C 3.984375 -1.546875 2.90625 -2.539062 2.125 -3.8125 C 1.351562 -5.082031 0.96875 -6.523438 0.96875 -8.140625 C 0.96875 -9.742188 1.351562 -11.179688 2.125 -12.453125 C 2.90625 -13.722656 3.984375 -14.71875 5.359375 -15.4375 C 6.742188 -16.15625 8.300781 -16.515625 10.03125 -16.515625 C 11.75 -16.515625 13.25 -16.15625 14.53125 -15.4375 C 15.8125 -14.71875 16.742188 -13.691406 17.328125 -12.359375 L 13.671875 -10.40625 C 12.816406 -11.894531 11.59375 -12.640625 10 -12.640625 C 8.769531 -12.640625 7.753906 -12.234375 6.953125 -11.421875 C 6.148438 -10.617188 5.75 -9.523438 5.75 -8.140625 C 5.75 -6.742188 6.148438 -5.640625 6.953125 -4.828125 C 7.753906 -4.023438 8.769531 -3.625 10 -3.625 C 11.613281 -3.625 12.835938 -4.367188 13.671875 -5.859375 L 17.328125 -3.875 C 16.742188 -2.582031 15.8125 -1.570312 14.53125 -0.84375 C 13.25 -0.125 11.75 0.234375 10.03125 0.234375 Z M 10.03125 0.234375 "/></g></g></g><g fill="#ffffff" fill-opacity="1"><g transform="translate(116.950564, 29.560473)"><g><path d="M 18.109375 -8.078125 C 18.109375 -8.015625 18.078125 -7.585938 18.015625 -6.796875 L 5.71875 -6.796875 C 5.9375 -5.796875 6.457031 -5 7.28125 -4.40625 C 8.113281 -3.820312 9.144531 -3.53125 10.375 -3.53125 C 11.21875 -3.53125 11.96875 -3.65625 12.625 -3.90625 C 13.28125 -4.164062 13.890625 -4.566406 14.453125 -5.109375 L 16.96875 -2.390625 C 15.425781 -0.640625 13.1875 0.234375 10.25 0.234375 C 8.414062 0.234375 6.789062 -0.117188 5.375 -0.828125 C 3.96875 -1.546875 2.878906 -2.539062 2.109375 -3.8125 C 1.347656 -5.082031 0.96875 -6.523438 0.96875 -8.140625 C 0.96875 -9.722656 1.34375 -11.15625 2.09375 -12.4375 C 2.851562 -13.71875 3.894531 -14.71875 5.21875 -15.4375 C 6.539062 -16.15625 8.015625 -16.515625 9.640625 -16.515625 C 11.234375 -16.515625 12.675781 -16.171875 13.96875 -15.484375 C 15.257812 -14.796875 16.269531 -13.8125 17 -12.53125 C 17.738281 -11.25 18.109375 -9.765625 18.109375 -8.078125 Z M 9.671875 -12.9375 C 8.609375 -12.9375 7.710938 -12.632812 6.984375 -12.03125 C 6.253906 -11.425781 5.8125 -10.597656 5.65625 -9.546875 L 13.671875 -9.546875 C 13.503906 -10.578125 13.054688 -11.398438 12.328125 -12.015625 C 11.609375 -12.628906 10.722656 -12.9375 9.671875 -12.9375 Z M 9.671875 -12.9375 "/></g></g></g><g fill="#ffffff" fill-opacity="1"><g transform="translate(134.667373, 29.560473)"><g/></g></g><g fill="#ffffff" fill-opacity="1"><g transform="translate(141.862865, 29.560473)"><g><path d="M 11.796875 -16.515625 C 13.304688 -16.515625 14.679688 -16.164062 15.921875 -15.46875 C 17.160156 -14.769531 18.128906 -13.789062 18.828125 -12.53125 C 19.535156 -11.269531 19.890625 -9.804688 19.890625 -8.140625 C 19.890625 -6.460938 19.535156 -4.992188 18.828125 -3.734375 C 18.128906 -2.472656 17.160156 -1.492188 15.921875 -0.796875 C 14.679688 -0.109375 13.304688 0.234375 11.796875 0.234375 C 9.554688 0.234375 7.851562 -0.46875 6.6875 -1.875 L 6.6875 0 L 2.171875 0 L 2.171875 -22.4375 L 6.890625 -22.4375 L 6.890625 -14.546875 C 8.078125 -15.859375 9.710938 -16.515625 11.796875 -16.515625 Z M 10.96875 -3.625 C 12.1875 -3.625 13.179688 -4.03125 13.953125 -4.84375 C 14.722656 -5.664062 15.109375 -6.765625 15.109375 -8.140625 C 15.109375 -9.503906 14.722656 -10.59375 13.953125 -11.40625 C 13.179688 -12.226562 12.1875 -12.640625 10.96875 -12.640625 C 9.757812 -12.640625 8.765625 -12.226562 7.984375 -11.40625 C 7.210938 -10.59375 6.828125 -9.503906 6.828125 -8.140625 C 6.828125 -6.765625 7.210938 -5.664062 7.984375 -4.84375 C 8.765625 -4.03125 9.757812 -3.625 10.96875 -3.625 Z M 10.96875 -3.625 "/></g></g></g><g fill="#ffffff" fill-opacity="1"><g transform="translate(161.091343, 29.560473)"><g><path d="M 8.734375 -16.515625 C 11.253906 -16.515625 13.1875 -15.910156 14.53125 -14.703125 C 15.882812 -13.503906 16.5625 -11.695312 16.5625 -9.28125 L 16.5625 0 L 12.15625 0 L 12.15625 -2.03125 C 11.269531 -0.519531 9.617188 0.234375 7.203125 0.234375 C 5.953125 0.234375 4.863281 0.0234375 3.9375 -0.390625 C 3.019531 -0.816406 2.320312 -1.398438 1.84375 -2.140625 C 1.363281 -2.890625 1.125 -3.738281 1.125 -4.6875 C 1.125 -6.195312 1.691406 -7.382812 2.828125 -8.25 C 3.960938 -9.113281 5.722656 -9.546875 8.109375 -9.546875 L 11.859375 -9.546875 C 11.859375 -10.578125 11.546875 -11.367188 10.921875 -11.921875 C 10.296875 -12.484375 9.359375 -12.765625 8.109375 -12.765625 C 7.234375 -12.765625 6.378906 -12.625 5.546875 -12.34375 C 4.710938 -12.070312 4.003906 -11.707031 3.421875 -11.25 L 1.71875 -14.546875 C 2.601562 -15.171875 3.664062 -15.65625 4.90625 -16 C 6.144531 -16.34375 7.421875 -16.515625 8.734375 -16.515625 Z M 8.375 -2.9375 C 9.175781 -2.9375 9.890625 -3.117188 10.515625 -3.484375 C 11.140625 -3.859375 11.585938 -4.410156 11.859375 -5.140625 L 11.859375 -6.796875 L 8.609375 -6.796875 C 6.679688 -6.796875 5.71875 -6.160156 5.71875 -4.890625 C 5.71875 -4.285156 5.953125 -3.804688 6.421875 -3.453125 C 6.898438 -3.109375 7.550781 -2.9375 8.375 -2.9375 Z M 8.375 -2.9375 "/></g></g></g><g fill="#ffffff" fill-opacity="1"><g transform="translate(178.384884, 29.560473)"><g><path d="M 7.65625 0.234375 C 6.300781 0.234375 4.976562 0.0703125 3.6875 -0.25 C 2.394531 -0.582031 1.367188 -1.003906 0.609375 -1.515625 L 2.171875 -4.890625 C 2.898438 -4.429688 3.773438 -4.054688 4.796875 -3.765625 C 5.828125 -3.472656 6.835938 -3.328125 7.828125 -3.328125 C 9.828125 -3.328125 10.828125 -3.820312 10.828125 -4.8125 C 10.828125 -5.269531 10.550781 -5.597656 10 -5.796875 C 9.457031 -6.003906 8.625 -6.175781 7.5 -6.3125 C 6.164062 -6.519531 5.066406 -6.753906 4.203125 -7.015625 C 3.335938 -7.273438 2.585938 -7.738281 1.953125 -8.40625 C 1.316406 -9.070312 1 -10.019531 1 -11.25 C 1 -12.28125 1.296875 -13.191406 1.890625 -13.984375 C 2.484375 -14.773438 3.347656 -15.394531 4.484375 -15.84375 C 5.628906 -16.289062 6.976562 -16.515625 8.53125 -16.515625 C 9.675781 -16.515625 10.816406 -16.382812 11.953125 -16.125 C 13.097656 -15.875 14.039062 -15.53125 14.78125 -15.09375 L 13.21875 -11.734375 C 11.78125 -12.535156 10.21875 -12.9375 8.53125 -12.9375 C 7.519531 -12.9375 6.757812 -12.796875 6.25 -12.515625 C 5.75 -12.234375 5.5 -11.867188 5.5 -11.421875 C 5.5 -10.921875 5.769531 -10.566406 6.3125 -10.359375 C 6.863281 -10.160156 7.734375 -9.972656 8.921875 -9.796875 C 10.253906 -9.578125 11.34375 -9.335938 12.1875 -9.078125 C 13.03125 -8.828125 13.765625 -8.367188 14.390625 -7.703125 C 15.015625 -7.046875 15.328125 -6.117188 15.328125 -4.921875 C 15.328125 -3.921875 15.023438 -3.023438 14.421875 -2.234375 C 13.816406 -1.453125 12.929688 -0.84375 11.765625 -0.40625 C 10.609375 0.0195312 9.238281 0.234375 7.65625 0.234375 Z M 7.65625 0.234375 "/></g></g></g><g fill="#ffffff" fill-opacity="1"><g transform="translate(193.078323, 29.560473)"><g><path d="M 18.109375 -8.078125 C 18.109375 -8.015625 18.078125 -7.585938 18.015625 -6.796875 L 5.71875 -6.796875 C 5.9375 -5.796875 6.457031 -5 7.28125 -4.40625 C 8.113281 -3.820312 9.144531 -3.53125 10.375 -3.53125 C 11.21875 -3.53125 11.96875 -3.65625 12.625 -3.90625 C 13.28125 -4.164062 13.890625 -4.566406 14.453125 -5.109375 L 16.96875 -2.390625 C 15.425781 -0.640625 13.1875 0.234375 10.25 0.234375 C 8.414062 0.234375 6.789062 -0.117188 5.375 -0.828125 C 3.96875 -1.546875 2.878906 -2.539062 2.109375 -3.8125 C 1.347656 -5.082031 0.96875 -6.523438 0.96875 -8.140625 C 0.96875 -9.722656 1.34375 -11.15625 2.09375 -12.4375 C 2.851562 -13.71875 3.894531 -14.71875 5.21875 -15.4375 C 6.539062 -16.15625 8.015625 -16.515625 9.640625 -16.515625 C 11.234375 -16.515625 12.675781 -16.171875 13.96875 -15.484375 C 15.257812 -14.796875 16.269531 -13.8125 17 -12.53125 C 17.738281 -11.25 18.109375 -9.765625 18.109375 -8.078125 Z M 9.671875 -12.9375 C 8.609375 -12.9375 7.710938 -12.632812 6.984375 -12.03125 C 6.253906 -11.425781 5.8125 -10.597656 5.65625 -9.546875 L 13.671875 -9.546875 C 13.503906 -10.578125 13.054688 -11.398438 12.328125 -12.015625 C 11.609375 -12.628906 10.722656 -12.9375 9.671875 -12.9375 Z M 9.671875 -12.9375 "/></g></g></g><g fill="#ffffff" fill-opacity="1"><g transform="translate(210.795121, 29.560473)"><g><path d="M 18.75 -22.4375 L 18.75 0 L 14.234375 0 L 14.234375 -1.875 C 13.066406 -0.46875 11.375 0.234375 9.15625 0.234375 C 7.625 0.234375 6.238281 -0.101562 5 -0.78125 C 3.757812 -1.46875 2.785156 -2.445312 2.078125 -3.71875 C 1.378906 -4.988281 1.03125 -6.460938 1.03125 -8.140625 C 1.03125 -9.804688 1.378906 -11.273438 2.078125 -12.546875 C 2.785156 -13.816406 3.757812 -14.796875 5 -15.484375 C 6.238281 -16.171875 7.625 -16.515625 9.15625 -16.515625 C 11.238281 -16.515625 12.863281 -15.859375 14.03125 -14.546875 L 14.03125 -22.4375 Z M 9.984375 -3.625 C 11.171875 -3.625 12.15625 -4.03125 12.9375 -4.84375 C 13.726562 -5.664062 14.125 -6.765625 14.125 -8.140625 C 14.125 -9.503906 13.726562 -10.59375 12.9375 -11.40625 C 12.15625 -12.226562 11.171875 -12.640625 9.984375 -12.640625 C 8.765625 -12.640625 7.765625 -12.226562 6.984375 -11.40625 C 6.203125 -10.59375 5.8125 -9.503906 5.8125 -8.140625 C 5.8125 -6.765625 6.203125 -5.664062 6.984375 -4.84375 C 7.765625 -4.03125 8.765625 -3.625 9.984375 -3.625 Z M 9.984375 -3.625 "/></g></g></g><g fill="#ffffff" fill-opacity="1"><g transform="translate(230.356187, 29.560473)"><g/></g></g><g fill="#ffffff" fill-opacity="1"><g transform="translate(237.551679, 29.560473)"><g><path d="M 12.640625 0.359375 C 10.484375 0.359375 8.53125 -0.109375 6.78125 -1.046875 C 5.039062 -1.984375 3.671875 -3.28125 2.671875 -4.9375 C 1.671875 -6.601562 1.171875 -8.484375 1.171875 -10.578125 C 1.171875 -12.671875 1.671875 -14.550781 2.671875 -16.21875 C 3.671875 -17.882812 5.039062 -19.1875 6.78125 -20.125 C 8.53125 -21.0625 10.492188 -21.53125 12.671875 -21.53125 C 14.503906 -21.53125 16.160156 -21.207031 17.640625 -20.5625 C 19.117188 -19.914062 20.363281 -18.988281 21.375 -17.78125 L 18.234375 -14.875 C 16.796875 -16.53125 15.019531 -17.359375 12.90625 -17.359375 C 11.59375 -17.359375 10.421875 -17.066406 9.390625 -16.484375 C 8.367188 -15.910156 7.570312 -15.109375 7 -14.078125 C 6.425781 -13.054688 6.140625 -11.890625 6.140625 -10.578125 C 6.140625 -9.265625 6.425781 -8.09375 7 -7.0625 C 7.570312 -6.039062 8.367188 -5.242188 9.390625 -4.671875 C 10.421875 -4.097656 11.59375 -3.8125 12.90625 -3.8125 C 15.019531 -3.8125 16.796875 -4.644531 18.234375 -6.3125 L 21.375 -3.421875 C 20.363281 -2.191406 19.113281 -1.253906 17.625 -0.609375 C 16.132812 0.0351562 14.472656 0.359375 12.640625 0.359375 Z M 12.640625 0.359375 "/></g></g></g><g fill="#ffffff" fill-opacity="1"><g transform="translate(257.777855, 29.560473)"><g><path d="M 9.921875 0.234375 C 8.203125 0.234375 6.660156 -0.117188 5.296875 -0.828125 C 3.941406 -1.546875 2.878906 -2.539062 2.109375 -3.8125 C 1.347656 -5.082031 0.96875 -6.523438 0.96875 -8.140625 C 0.96875 -9.742188 1.347656 -11.179688 2.109375 -12.453125 C 2.878906 -13.722656 3.941406 -14.71875 5.296875 -15.4375 C 6.660156 -16.15625 8.203125 -16.515625 9.921875 -16.515625 C 11.628906 -16.515625 13.15625 -16.15625 14.5 -15.4375 C 15.851562 -14.71875 16.914062 -13.722656 17.6875 -12.453125 C 18.457031 -11.179688 18.84375 -9.742188 18.84375 -8.140625 C 18.84375 -6.523438 18.457031 -5.082031 17.6875 -3.8125 C 16.914062 -2.539062 15.851562 -1.546875 14.5 -0.828125 C 13.15625 -0.117188 11.628906 0.234375 9.921875 0.234375 Z M 9.921875 -3.625 C 11.128906 -3.625 12.117188 -4.03125 12.890625 -4.84375 C 13.671875 -5.664062 14.0625 -6.765625 14.0625 -8.140625 C 14.0625 -9.503906 13.671875 -10.59375 12.890625 -11.40625 C 12.117188 -12.226562 11.128906 -12.640625 9.921875 -12.640625 C 8.710938 -12.640625 7.710938 -12.226562 6.921875 -11.40625 C 6.140625 -10.59375 5.75 -9.503906 5.75 -8.140625 C 5.75 -6.765625 6.140625 -5.664062 6.921875 -4.84375 C 7.710938 -4.03125 8.710938 -3.625 9.921875 -3.625 Z M 9.921875 -3.625 "/></g></g></g><g fill="#ffffff" fill-opacity="1"><g transform="translate(276.220268, 29.560473)"><g><path d="M 23.015625 -16.515625 C 25.046875 -16.515625 26.660156 -15.910156 27.859375 -14.703125 C 29.054688 -13.503906 29.65625 -11.707031 29.65625 -9.3125 L 29.65625 0 L 24.9375 0 L 24.9375 -8.59375 C 24.9375 -9.875 24.671875 -10.832031 24.140625 -11.46875 C 23.609375 -12.101562 22.847656 -12.421875 21.859375 -12.421875 C 20.753906 -12.421875 19.878906 -12.0625 19.234375 -11.34375 C 18.585938 -10.632812 18.265625 -9.570312 18.265625 -8.15625 L 18.265625 0 L 13.546875 0 L 13.546875 -8.59375 C 13.546875 -11.144531 12.519531 -12.421875 10.46875 -12.421875 C 9.375 -12.421875 8.503906 -12.0625 7.859375 -11.34375 C 7.210938 -10.632812 6.890625 -9.570312 6.890625 -8.15625 L 6.890625 0 L 2.171875 0 L 2.171875 -16.265625 L 6.6875 -16.265625 L 6.6875 -14.390625 C 7.289062 -15.078125 8.03125 -15.601562 8.90625 -15.96875 C 9.78125 -16.332031 10.742188 -16.515625 11.796875 -16.515625 C 12.941406 -16.515625 13.976562 -16.285156 14.90625 -15.828125 C 15.832031 -15.367188 16.578125 -14.707031 17.140625 -13.84375 C 17.804688 -14.6875 18.644531 -15.34375 19.65625 -15.8125 C 20.675781 -16.28125 21.796875 -16.515625 23.015625 -16.515625 Z M 23.015625 -16.515625 "/></g></g></g><g fill="#ffffff" fill-opacity="1"><g transform="translate(306.574734, 29.560473)"><g><path d="M 11.796875 -16.515625 C 13.304688 -16.515625 14.679688 -16.164062 15.921875 -15.46875 C 17.160156 -14.769531 18.128906 -13.789062 18.828125 -12.53125 C 19.535156 -11.269531 19.890625 -9.804688 19.890625 -8.140625 C 19.890625 -6.460938 19.535156 -4.992188 18.828125 -3.734375 C 18.128906 -2.472656 17.160156 -1.492188 15.921875 -0.796875 C 14.679688 -0.109375 13.304688 0.234375 11.796875 0.234375 C 9.710938 0.234375 8.078125 -0.414062 6.890625 -1.71875 L 6.890625 5.859375 L 2.171875 5.859375 L 2.171875 -16.265625 L 6.6875 -16.265625 L 6.6875 -14.390625 C 7.851562 -15.804688 9.554688 -16.515625 11.796875 -16.515625 Z M 10.96875 -3.625 C 12.1875 -3.625 13.179688 -4.03125 13.953125 -4.84375 C 14.722656 -5.664062 15.109375 -6.765625 15.109375 -8.140625 C 15.109375 -9.503906 14.722656 -10.59375 13.953125 -11.40625 C 13.179688 -12.226562 12.1875 -12.640625 10.96875 -12.640625 C 9.757812 -12.640625 8.765625 -12.226562 7.984375 -11.40625 C 7.210938 -10.59375 6.828125 -9.503906 6.828125 -8.140625 C 6.828125 -6.765625 7.210938 -5.664062 7.984375 -4.84375 C 8.765625 -4.03125 9.757812 -3.625 10.96875 -3.625 Z M 10.96875 -3.625 "/></g></g></g><g fill="#ffffff" fill-opacity="1"><g transform="translate(326.075339, 29.560473)"><g><path d="M 2.171875 -22.4375 L 6.890625 -22.4375 L 6.890625 0 L 2.171875 0 Z M 2.171875 -22.4375 "/></g></g></g><g fill="#ffffff" fill-opacity="1"><g transform="translate(333.815042, 29.560473)"><g><path d="M 8.734375 -16.515625 C 11.253906 -16.515625 13.1875 -15.910156 14.53125 -14.703125 C 15.882812 -13.503906 16.5625 -11.695312 16.5625 -9.28125 L 16.5625 0 L 12.15625 0 L 12.15625 -2.03125 C 11.269531 -0.519531 9.617188 0.234375 7.203125 0.234375 C 5.953125 0.234375 4.863281 0.0234375 3.9375 -0.390625 C 3.019531 -0.816406 2.320312 -1.398438 1.84375 -2.140625 C 1.363281 -2.890625 1.125 -3.738281 1.125 -4.6875 C 1.125 -6.195312 1.691406 -7.382812 2.828125 -8.25 C 3.960938 -9.113281 5.722656 -9.546875 8.109375 -9.546875 L 11.859375 -9.546875 C 11.859375 -10.578125 11.546875 -11.367188 10.921875 -11.921875 C 10.296875 -12.484375 9.359375 -12.765625 8.109375 -12.765625 C 7.234375 -12.765625 6.378906 -12.625 5.546875 -12.34375 C 4.710938 -12.070312 4.003906 -11.707031 3.421875 -11.25 L 1.71875 -14.546875 C 2.601562 -15.171875 3.664062 -15.65625 4.90625 -16 C 6.144531 -16.34375 7.421875 -16.515625 8.734375 -16.515625 Z M 8.375 -2.9375 C 9.175781 -2.9375 9.890625 -3.117188 10.515625 -3.484375 C 11.140625 -3.859375 11.585938 -4.410156 11.859375 -5.140625 L 11.859375 -6.796875 L 8.609375 -6.796875 C 6.679688 -6.796875 5.71875 -6.160156 5.71875 -4.890625 C 5.71875 -4.285156 5.953125 -3.804688 6.421875 -3.453125 C 6.898438 -3.109375 7.550781 -2.9375 8.375 -2.9375 Z M 8.375 -2.9375 "/></g></g></g><g fill="#ffffff" fill-opacity="1"><g transform="translate(351.108572, 29.560473)"><g><path d="M 2.171875 -16.265625 L 6.890625 -16.265625 L 6.890625 0 L 2.171875 0 Z M 4.546875 -18.53125 C 3.671875 -18.53125 2.960938 -18.78125 2.421875 -19.28125 C 1.878906 -19.789062 1.609375 -20.414062 1.609375 -21.15625 C 1.609375 -21.90625 1.878906 -22.53125 2.421875 -23.03125 C 2.960938 -23.539062 3.671875 -23.796875 4.546875 -23.796875 C 5.410156 -23.796875 6.113281 -23.550781 6.65625 -23.0625 C 7.195312 -22.582031 7.46875 -21.976562 7.46875 -21.25 C 7.46875 -20.46875 7.195312 -19.816406 6.65625 -19.296875 C 6.113281 -18.785156 5.410156 -18.53125 4.546875 -18.53125 Z M 4.546875 -18.53125 "/></g></g></g><g fill="#ffffff" fill-opacity="1"><g transform="translate(358.848275, 29.560473)"><g><path d="M 12.0625 -16.515625 C 14.082031 -16.515625 15.710938 -15.90625 16.953125 -14.6875 C 18.191406 -13.476562 18.8125 -11.6875 18.8125 -9.3125 L 18.8125 0 L 14.09375 0 L 14.09375 -8.59375 C 14.09375 -9.875 13.804688 -10.832031 13.234375 -11.46875 C 12.671875 -12.101562 11.859375 -12.421875 10.796875 -12.421875 C 9.609375 -12.421875 8.660156 -12.050781 7.953125 -11.3125 C 7.242188 -10.582031 6.890625 -9.492188 6.890625 -8.046875 L 6.890625 0 L 2.171875 0 L 2.171875 -16.265625 L 6.6875 -16.265625 L 6.6875 -14.359375 C 7.3125 -15.046875 8.085938 -15.578125 9.015625 -15.953125 C 9.941406 -16.328125 10.957031 -16.515625 12.0625 -16.515625 Z M 12.0625 -16.515625 "/></g></g></g><g fill="#ffffff" fill-opacity="1"><g transform="translate(378.379089, 29.560473)"><g><path d="M 12.671875 -0.78125 C 12.203125 -0.4375 11.628906 -0.179688 10.953125 -0.015625 C 10.285156 0.148438 9.578125 0.234375 8.828125 0.234375 C 6.890625 0.234375 5.390625 -0.253906 4.328125 -1.234375 C 3.273438 -2.222656 2.75 -3.675781 2.75 -5.59375 L 2.75 -12.28125 L 0.234375 -12.28125 L 0.234375 -15.90625 L 2.75 -15.90625 L 2.75 -19.859375 L 7.46875 -19.859375 L 7.46875 -15.90625 L 11.515625 -15.90625 L 11.515625 -12.28125 L 7.46875 -12.28125 L 7.46875 -5.65625 C 7.46875 -4.96875 7.644531 -4.4375 8 -4.0625 C 8.351562 -3.6875 8.851562 -3.5 9.5 -3.5 C 10.238281 -3.5 10.867188 -3.703125 11.390625 -4.109375 Z M 12.671875 -0.78125 "/></g></g></g><g fill="#ffffff" fill-opacity="1"><g transform="translate(390.170134, 29.560473)"><g/></g></g><g fill="#ffffff" fill-opacity="1"><g transform="translate(397.365604, 29.560473)"><g><path d="M 18.78125 0.359375 L 16.234375 -2 C 14.222656 -0.425781 11.863281 0.359375 9.15625 0.359375 C 7.625 0.359375 6.242188 0.113281 5.015625 -0.375 C 3.785156 -0.875 2.820312 -1.566406 2.125 -2.453125 C 1.4375 -3.335938 1.09375 -4.332031 1.09375 -5.4375 C 1.09375 -6.75 1.457031 -7.90625 2.1875 -8.90625 C 2.925781 -9.90625 4.113281 -10.859375 5.75 -11.765625 C 4.976562 -12.546875 4.421875 -13.296875 4.078125 -14.015625 C 3.734375 -14.734375 3.5625 -15.472656 3.5625 -16.234375 C 3.5625 -17.265625 3.832031 -18.171875 4.375 -18.953125 C 4.925781 -19.742188 5.695312 -20.351562 6.6875 -20.78125 C 7.6875 -21.21875 8.84375 -21.4375 10.15625 -21.4375 C 11.988281 -21.4375 13.457031 -21 14.5625 -20.125 C 15.675781 -19.25 16.234375 -18.0625 16.234375 -16.5625 C 16.234375 -15.476562 15.90625 -14.507812 15.25 -13.65625 C 14.59375 -12.8125 13.539062 -12 12.09375 -11.21875 L 15.96875 -7.625 C 16.425781 -8.582031 16.773438 -9.679688 17.015625 -10.921875 L 20.796875 -9.734375 C 20.398438 -7.859375 19.753906 -6.253906 18.859375 -4.921875 L 21.34375 -2.625 Z M 10.15625 -18.234375 C 9.445312 -18.234375 8.882812 -18.050781 8.46875 -17.6875 C 8.0625 -17.320312 7.859375 -16.859375 7.859375 -16.296875 C 7.859375 -15.867188 7.96875 -15.46875 8.1875 -15.09375 C 8.414062 -14.726562 8.851562 -14.234375 9.5 -13.609375 C 10.519531 -14.148438 11.234375 -14.632812 11.640625 -15.0625 C 12.046875 -15.5 12.25 -15.972656 12.25 -16.484375 C 12.25 -17.003906 12.066406 -17.425781 11.703125 -17.75 C 11.335938 -18.070312 10.820312 -18.234375 10.15625 -18.234375 Z M 9.5 -3.328125 C 10.96875 -3.328125 12.285156 -3.738281 13.453125 -4.5625 L 8.34375 -9.34375 C 7.394531 -8.800781 6.71875 -8.265625 6.3125 -7.734375 C 5.914062 -7.210938 5.71875 -6.617188 5.71875 -5.953125 C 5.71875 -5.171875 6.054688 -4.535156 6.734375 -4.046875 C 7.421875 -3.566406 8.34375 -3.328125 9.5 -3.328125 Z M 9.5 -3.328125 "/></g></g></g><g fill="#ffffff" fill-opacity="1"><g transform="translate(418.01507, 29.560473)"><g/></g></g><g fill="#ffffff" fill-opacity="1"><g transform="translate(425.210584, 29.560473)"><g><path d="M 21.921875 -21.15625 L 21.921875 0 L 17.015625 0 L 17.015625 -8.671875 L 7.40625 -8.671875 L 7.40625 0 L 2.515625 0 L 2.515625 -21.15625 L 7.40625 -21.15625 L 7.40625 -12.8125 L 17.015625 -12.8125 L 17.015625 -21.15625 Z M 21.921875 -21.15625 "/></g></g></g><g fill="#ffffff" fill-opacity="1"><g transform="translate(448.278737, 29.560473)"><g><path d="M 9.921875 0.234375 C 8.203125 0.234375 6.660156 -0.117188 5.296875 -0.828125 C 3.941406 -1.546875 2.878906 -2.539062 2.109375 -3.8125 C 1.347656 -5.082031 0.96875 -6.523438 0.96875 -8.140625 C 0.96875 -9.742188 1.347656 -11.179688 2.109375 -12.453125 C 2.878906 -13.722656 3.941406 -14.71875 5.296875 -15.4375 C 6.660156 -16.15625 8.203125 -16.515625 9.921875 -16.515625 C 11.628906 -16.515625 13.15625 -16.15625 14.5 -15.4375 C 15.851562 -14.71875 16.914062 -13.722656 17.6875 -12.453125 C 18.457031 -11.179688 18.84375 -9.742188 18.84375 -8.140625 C 18.84375 -6.523438 18.457031 -5.082031 17.6875 -3.8125 C 16.914062 -2.539062 15.851562 -1.546875 14.5 -0.828125 C 13.15625 -0.117188 11.628906 0.234375 9.921875 0.234375 Z M 9.921875 -3.625 C 11.128906 -3.625 12.117188 -4.03125 12.890625 -4.84375 C 13.671875 -5.664062 14.0625 -6.765625 14.0625 -8.140625 C 14.0625 -9.503906 13.671875 -10.59375 12.890625 -11.40625 C 12.117188 -12.226562 11.128906 -12.640625 9.921875 -12.640625 C 8.710938 -12.640625 7.710938 -12.226562 6.921875 -11.40625 C 6.140625 -10.59375 5.75 -9.503906 5.75 -8.140625 C 5.75 -6.765625 6.140625 -5.664062 6.921875 -4.84375 C 7.710938 -4.03125 8.710938 -3.625 9.921875 -3.625 Z M 9.921875 -3.625 "/></g></g></g><g fill="#ffffff" fill-opacity="1"><g transform="translate(466.72115, 29.560473)"><g><path d="M 7.65625 0.234375 C 6.300781 0.234375 4.976562 0.0703125 3.6875 -0.25 C 2.394531 -0.582031 1.367188 -1.003906 0.609375 -1.515625 L 2.171875 -4.890625 C 2.898438 -4.429688 3.773438 -4.054688 4.796875 -3.765625 C 5.828125 -3.472656 6.835938 -3.328125 7.828125 -3.328125 C 9.828125 -3.328125 10.828125 -3.820312 10.828125 -4.8125 C 10.828125 -5.269531 10.550781 -5.597656 10 -5.796875 C 9.457031 -6.003906 8.625 -6.175781 7.5 -6.3125 C 6.164062 -6.519531 5.066406 -6.753906 4.203125 -7.015625 C 3.335938 -7.273438 2.585938 -7.738281 1.953125 -8.40625 C 1.316406 -9.070312 1 -10.019531 1 -11.25 C 1 -12.28125 1.296875 -13.191406 1.890625 -13.984375 C 2.484375 -14.773438 3.347656 -15.394531 4.484375 -15.84375 C 5.628906 -16.289062 6.976562 -16.515625 8.53125 -16.515625 C 9.675781 -16.515625 10.816406 -16.382812 11.953125 -16.125 C 13.097656 -15.875 14.039062 -15.53125 14.78125 -15.09375 L 13.21875 -11.734375 C 11.78125 -12.535156 10.21875 -12.9375 8.53125 -12.9375 C 7.519531 -12.9375 6.757812 -12.796875 6.25 -12.515625 C 5.75 -12.234375 5.5 -11.867188 5.5 -11.421875 C 5.5 -10.921875 5.769531 -10.566406 6.3125 -10.359375 C 6.863281 -10.160156 7.734375 -9.972656 8.921875 -9.796875 C 10.253906 -9.578125 11.34375 -9.335938 12.1875 -9.078125 C 13.03125 -8.828125 13.765625 -8.367188 14.390625 -7.703125 C 15.015625 -7.046875 15.328125 -6.117188 15.328125 -4.921875 C 15.328125 -3.921875 15.023438 -3.023438 14.421875 -2.234375 C 13.816406 -1.453125 12.929688 -0.84375 11.765625 -0.40625 C 10.609375 0.0195312 9.238281 0.234375 7.65625 0.234375 Z M 7.65625 0.234375 "/></g></g></g><g fill="#ffffff" fill-opacity="1"><g transform="translate(481.414611, 29.560473)"><g><path d="M 12.671875 -0.78125 C 12.203125 -0.4375 11.628906 -0.179688 10.953125 -0.015625 C 10.285156 0.148438 9.578125 0.234375 8.828125 0.234375 C 6.890625 0.234375 5.390625 -0.253906 4.328125 -1.234375 C 3.273438 -2.222656 2.75 -3.675781 2.75 -5.59375 L 2.75 -12.28125 L 0.234375 -12.28125 L 0.234375 -15.90625 L 2.75 -15.90625 L 2.75 -19.859375 L 7.46875 -19.859375 L 7.46875 -15.90625 L 11.515625 -15.90625 L 11.515625 -12.28125 L 7.46875 -12.28125 L 7.46875 -5.65625 C 7.46875 -4.96875 7.644531 -4.4375 8 -4.0625 C 8.351562 -3.6875 8.851562 -3.5 9.5 -3.5 C 10.238281 -3.5 10.867188 -3.703125 11.390625 -4.109375 Z M 12.671875 -0.78125 "/></g></g></g><g fill="#ffffff" fill-opacity="1"><g transform="translate(492.691632, 29.560473)"><g><path d="M 18.109375 -8.078125 C 18.109375 -8.015625 18.078125 -7.585938 18.015625 -6.796875 L 5.71875 -6.796875 C 5.9375 -5.796875 6.457031 -5 7.28125 -4.40625 C 8.113281 -3.820312 9.144531 -3.53125 10.375 -3.53125 C 11.21875 -3.53125 11.96875 -3.65625 12.625 -3.90625 C 13.28125 -4.164062 13.890625 -4.566406 14.453125 -5.109375 L 16.96875 -2.390625 C 15.425781 -0.640625 13.1875 0.234375 10.25 0.234375 C 8.414062 0.234375 6.789062 -0.117188 5.375 -0.828125 C 3.96875 -1.546875 2.878906 -2.539062 2.109375 -3.8125 C 1.347656 -5.082031 0.96875 -6.523438 0.96875 -8.140625 C 0.96875 -9.722656 1.34375 -11.15625 2.09375 -12.4375 C 2.851562 -13.71875 3.894531 -14.71875 5.21875 -15.4375 C 6.539062 -16.15625 8.015625 -16.515625 9.640625 -16.515625 C 11.234375 -16.515625 12.675781 -16.171875 13.96875 -15.484375 C 15.257812 -14.796875 16.269531 -13.8125 17 -12.53125 C 17.738281 -11.25 18.109375 -9.765625 18.109375 -8.078125 Z M 9.671875 -12.9375 C 8.609375 -12.9375 7.710938 -12.632812 6.984375 -12.03125 C 6.253906 -11.425781 5.8125 -10.597656 5.65625 -9.546875 L 13.671875 -9.546875 C 13.503906 -10.578125 13.054688 -11.398438 12.328125 -12.015625 C 11.609375 -12.628906 10.722656 -12.9375 9.671875 -12.9375 Z M 9.671875 -12.9375 "/></g></g></g><g fill="#ffffff" fill-opacity="1"><g transform="translate(510.40843, 29.560473)"><g><path d="M 2.171875 -22.4375 L 6.890625 -22.4375 L 6.890625 0 L 2.171875 0 Z M 2.171875 -22.4375 "/></g></g></g><g fill="#ffffff" fill-opacity="1"><g transform="translate(518.148133, 29.560473)"><g/></g></g><g fill="#ffffff" fill-opacity="1"><g transform="translate(525.343647, 29.560473)"><g><path d="M 12.765625 0.359375 C 10.566406 0.359375 8.582031 -0.113281 6.8125 -1.0625 C 5.050781 -2.007812 3.671875 -3.3125 2.671875 -4.96875 C 1.671875 -6.632812 1.171875 -8.503906 1.171875 -10.578125 C 1.171875 -12.660156 1.671875 -14.53125 2.671875 -16.1875 C 3.671875 -17.851562 5.050781 -19.160156 6.8125 -20.109375 C 8.582031 -21.054688 10.566406 -21.53125 12.765625 -21.53125 C 14.953125 -21.53125 16.921875 -21.054688 18.671875 -20.109375 C 20.429688 -19.160156 21.816406 -17.851562 22.828125 -16.1875 C 23.835938 -14.53125 24.34375 -12.660156 24.34375 -10.578125 C 24.34375 -8.503906 23.835938 -6.632812 22.828125 -4.96875 C 21.816406 -3.3125 20.429688 -2.007812 18.671875 -1.0625 C 16.921875 -0.113281 14.953125 0.359375 12.765625 0.359375 Z M 12.765625 -3.8125 C 14.015625 -3.8125 15.140625 -4.097656 16.140625 -4.671875 C 17.148438 -5.242188 17.941406 -6.039062 18.515625 -7.0625 C 19.085938 -8.09375 19.375 -9.265625 19.375 -10.578125 C 19.375 -11.890625 19.085938 -13.054688 18.515625 -14.078125 C 17.941406 -15.109375 17.148438 -15.910156 16.140625 -16.484375 C 15.140625 -17.066406 14.015625 -17.359375 12.765625 -17.359375 C 11.515625 -17.359375 10.382812 -17.066406 9.375 -16.484375 C 8.363281 -15.910156 7.570312 -15.109375 7 -14.078125 C 6.425781 -13.054688 6.140625 -11.890625 6.140625 -10.578125 C 6.140625 -9.265625 6.425781 -8.09375 7 -7.0625 C 7.570312 -6.039062 8.363281 -5.242188 9.375 -4.671875 C 10.382812 -4.097656 11.515625 -3.8125 12.765625 -3.8125 Z M 12.765625 -3.8125 "/></g></g></g><g fill="#ffffff" fill-opacity="1"><g transform="translate(549.500222, 29.560473)"><g><path d="M 18.328125 -16.265625 L 11.453125 0 L 6.59375 0 L -0.234375 -16.265625 L 4.625 -16.265625 L 9.125 -5.203125 L 13.78125 -16.265625 Z M 18.328125 -16.265625 "/></g></g></g><g fill="#ffffff" fill-opacity="1"><g transform="translate(565.765791, 29.560473)"><g><path d="M 18.109375 -8.078125 C 18.109375 -8.015625 18.078125 -7.585938 18.015625 -6.796875 L 5.71875 -6.796875 C 5.9375 -5.796875 6.457031 -5 7.28125 -4.40625 C 8.113281 -3.820312 9.144531 -3.53125 10.375 -3.53125 C 11.21875 -3.53125 11.96875 -3.65625 12.625 -3.90625 C 13.28125 -4.164062 13.890625 -4.566406 14.453125 -5.109375 L 16.96875 -2.390625 C 15.425781 -0.640625 13.1875 0.234375 10.25 0.234375 C 8.414062 0.234375 6.789062 -0.117188 5.375 -0.828125 C 3.96875 -1.546875 2.878906 -2.539062 2.109375 -3.8125 C 1.347656 -5.082031 0.96875 -6.523438 0.96875 -8.140625 C 0.96875 -9.722656 1.34375 -11.15625 2.09375 -12.4375 C 2.851562 -13.71875 3.894531 -14.71875 5.21875 -15.4375 C 6.539062 -16.15625 8.015625 -16.515625 9.640625 -16.515625 C 11.234375 -16.515625 12.675781 -16.171875 13.96875 -15.484375 C 15.257812 -14.796875 16.269531 -13.8125 17 -12.53125 C 17.738281 -11.25 18.109375 -9.765625 18.109375 -8.078125 Z M 9.671875 -12.9375 C 8.609375 -12.9375 7.710938 -12.632812 6.984375 -12.03125 C 6.253906 -11.425781 5.8125 -10.597656 5.65625 -9.546875 L 13.671875 -9.546875 C 13.503906 -10.578125 13.054688 -11.398438 12.328125 -12.015625 C 11.609375 -12.628906 10.722656 -12.9375 9.671875 -12.9375 Z M 9.671875 -12.9375 "/></g></g></g><g fill="#ffffff" fill-opacity="1"><g transform="translate(583.482589, 29.560473)"><g><path d="M 6.6875 -14.125 C 7.25 -14.90625 8.007812 -15.5 8.96875 -15.90625 C 9.925781 -16.3125 11.03125 -16.515625 12.28125 -16.515625 L 12.28125 -12.15625 C 11.75 -12.195312 11.394531 -12.21875 11.21875 -12.21875 C 9.863281 -12.21875 8.800781 -11.835938 8.03125 -11.078125 C 7.269531 -10.328125 6.890625 -9.191406 6.890625 -7.671875 L 6.890625 0 L 2.171875 0 L 2.171875 -16.265625 L 6.6875 -16.265625 Z M 6.6875 -14.125 "/></g></g></g><g fill="#ffffff" fill-opacity="1"><g transform="translate(595.092209, 29.560473)"><g><path d="M 7.65625 0.234375 C 6.300781 0.234375 4.976562 0.0703125 3.6875 -0.25 C 2.394531 -0.582031 1.367188 -1.003906 0.609375 -1.515625 L 2.171875 -4.890625 C 2.898438 -4.429688 3.773438 -4.054688 4.796875 -3.765625 C 5.828125 -3.472656 6.835938 -3.328125 7.828125 -3.328125 C 9.828125 -3.328125 10.828125 -3.820312 10.828125 -4.8125 C 10.828125 -5.269531 10.550781 -5.597656 10 -5.796875 C 9.457031 -6.003906 8.625 -6.175781 7.5 -6.3125 C 6.164062 -6.519531 5.066406 -6.753906 4.203125 -7.015625 C 3.335938 -7.273438 2.585938 -7.738281 1.953125 -8.40625 C 1.316406 -9.070312 1 -10.019531 1 -11.25 C 1 -12.28125 1.296875 -13.191406 1.890625 -13.984375 C 2.484375 -14.773438 3.347656 -15.394531 4.484375 -15.84375 C 5.628906 -16.289062 6.976562 -16.515625 8.53125 -16.515625 C 9.675781 -16.515625 10.816406 -16.382812 11.953125 -16.125 C 13.097656 -15.875 14.039062 -15.53125 14.78125 -15.09375 L 13.21875 -11.734375 C 11.78125 -12.535156 10.21875 -12.9375 8.53125 -12.9375 C 7.519531 -12.9375 6.757812 -12.796875 6.25 -12.515625 C 5.75 -12.234375 5.5 -11.867188 5.5 -11.421875 C 5.5 -10.921875 5.769531 -10.566406 6.3125 -10.359375 C 6.863281 -10.160156 7.734375 -9.972656 8.921875 -9.796875 C 10.253906 -9.578125 11.34375 -9.335938 12.1875 -9.078125 C 13.03125 -8.828125 13.765625 -8.367188 14.390625 -7.703125 C 15.015625 -7.046875 15.328125 -6.117188 15.328125 -4.921875 C 15.328125 -3.921875 15.023438 -3.023438 14.421875 -2.234375 C 13.816406 -1.453125 12.929688 -0.84375 11.765625 -0.40625 C 10.609375 0.0195312 9.238281 0.234375 7.65625 0.234375 Z M 7.65625 0.234375 "/></g></g></g><g fill="#ffffff" fill-opacity="1"><g transform="translate(609.785627, 29.560473)"><g><path d="M 2.171875 -16.265625 L 6.890625 -16.265625 L 6.890625 0 L 2.171875 0 Z M 4.546875 -18.53125 C 3.671875 -18.53125 2.960938 -18.78125 2.421875 -19.28125 C 1.878906 -19.789062 1.609375 -20.414062 1.609375 -21.15625 C 1.609375 -21.90625 1.878906 -22.53125 2.421875 -23.03125 C 2.960938 -23.539062 3.671875 -23.796875 4.546875 -23.796875 C 5.410156 -23.796875 6.113281 -23.550781 6.65625 -23.0625 C 7.195312 -22.582031 7.46875 -21.976562 7.46875 -21.25 C 7.46875 -20.46875 7.195312 -19.816406 6.65625 -19.296875 C 6.113281 -18.785156 5.410156 -18.53125 4.546875 -18.53125 Z M 4.546875 -18.53125 "/></g></g></g><g fill="#ffffff" fill-opacity="1"><g transform="translate(617.52533, 29.560473)"><g><path d="M 18.953125 -16.265625 L 18.953125 -2.71875 C 18.953125 0.257812 18.175781 2.472656 16.625 3.921875 C 15.070312 5.378906 12.804688 6.109375 9.828125 6.109375 C 8.253906 6.109375 6.757812 5.914062 5.34375 5.53125 C 3.9375 5.144531 2.769531 4.59375 1.84375 3.875 L 3.71875 0.484375 C 4.40625 1.046875 5.269531 1.492188 6.3125 1.828125 C 7.363281 2.160156 8.414062 2.328125 9.46875 2.328125 C 11.09375 2.328125 12.289062 1.957031 13.0625 1.21875 C 13.84375 0.488281 14.234375 -0.617188 14.234375 -2.109375 L 14.234375 -2.8125 C 13.003906 -1.457031 11.289062 -0.78125 9.09375 -0.78125 C 7.601562 -0.78125 6.238281 -1.109375 5 -1.765625 C 3.757812 -2.421875 2.773438 -3.34375 2.046875 -4.53125 C 1.328125 -5.71875 0.96875 -7.085938 0.96875 -8.640625 C 0.96875 -10.191406 1.328125 -11.5625 2.046875 -12.75 C 2.773438 -13.945312 3.757812 -14.875 5 -15.53125 C 6.238281 -16.1875 7.601562 -16.515625 9.09375 -16.515625 C 11.457031 -16.515625 13.253906 -15.738281 14.484375 -14.1875 L 14.484375 -16.265625 Z M 10.03125 -4.65625 C 11.28125 -4.65625 12.300781 -5.019531 13.09375 -5.75 C 13.894531 -6.488281 14.296875 -7.453125 14.296875 -8.640625 C 14.296875 -9.835938 13.894531 -10.800781 13.09375 -11.53125 C 12.300781 -12.269531 11.28125 -12.640625 10.03125 -12.640625 C 8.78125 -12.640625 7.753906 -12.269531 6.953125 -11.53125 C 6.148438 -10.800781 5.75 -9.835938 5.75 -8.640625 C 5.75 -7.453125 6.148438 -6.488281 6.953125 -5.75 C 7.753906 -5.019531 8.78125 -4.65625 10.03125 -4.65625 Z M 10.03125 -4.65625 "/></g></g></g><g fill="#ffffff" fill-opacity="1"><g transform="translate(637.32826, 29.560473)"><g><path d="M 12.0625 -16.515625 C 14.082031 -16.515625 15.710938 -15.90625 16.953125 -14.6875 C 18.191406 -13.476562 18.8125 -11.6875 18.8125 -9.3125 L 18.8125 0 L 14.09375 0 L 14.09375 -8.59375 C 14.09375 -9.875 13.804688 -10.832031 13.234375 -11.46875 C 12.671875 -12.101562 11.859375 -12.421875 10.796875 -12.421875 C 9.609375 -12.421875 8.660156 -12.050781 7.953125 -11.3125 C 7.242188 -10.582031 6.890625 -9.492188 6.890625 -8.046875 L 6.890625 0 L 2.171875 0 L 2.171875 -22.4375 L 6.890625 -22.4375 L 6.890625 -14.578125 C 7.515625 -15.203125 8.269531 -15.679688 9.15625 -16.015625 C 10.039062 -16.347656 11.007812 -16.515625 12.0625 -16.515625 Z M 12.0625 -16.515625 "/></g></g></g><g fill="#ffffff" fill-opacity="1"><g transform="translate(656.859095, 29.560473)"><g><path d="M 12.671875 -0.78125 C 12.203125 -0.4375 11.628906 -0.179688 10.953125 -0.015625 C 10.285156 0.148438 9.578125 0.234375 8.828125 0.234375 C 6.890625 0.234375 5.390625 -0.253906 4.328125 -1.234375 C 3.273438 -2.222656 2.75 -3.675781 2.75 -5.59375 L 2.75 -12.28125 L 0.234375 -12.28125 L 0.234375 -15.90625 L 2.75 -15.90625 L 2.75 -19.859375 L 7.46875 -19.859375 L 7.46875 -15.90625 L 11.515625 -15.90625 L 11.515625 -12.28125 L 7.46875 -12.28125 L 7.46875 -5.65625 C 7.46875 -4.96875 7.644531 -4.4375 8 -4.0625 C 8.351562 -3.6875 8.851562 -3.5 9.5 -3.5 C 10.238281 -3.5 10.867188 -3.703125 11.390625 -4.109375 Z M 12.671875 -0.78125 "/></g></g></g></g></g><g transform="matrix(1, 0, 0, 1, 388, 96)"><g clip-path="url(#d720de44f5)"><g fill="#ffffff" fill-opacity="1"><g transform="translate(1.722075, 201.053253)"><g><path d="M 33.421875 -200.6875 L 33.421875 48.90625 L 25.0625 48.90625 L 25.0625 -200.6875 Z M 33.421875 -200.6875 "/></g></g></g></g></g></svg>